<svg id="Layer_1" data-name="Layer 1" xmlns="http://www.w3.org/2000/svg" viewBox="0 0 708 182"><defs><style>.cls-1{fill:#202020;}</style></defs><path class="cls-1" d="M98.56,109.58c-10.68-.4-20-2.29-28-3.78-7.83,13.65-18.37,35.66,1.63,35.66l-.14.95H32.5l.14-.95c14.59,0,27.15-20.26,36.6-35.93-5.13-.94-9.59-1.75-13.23-1.75-5.95,0-9.46,2.29-9.46,8.37,0,3.51,2.57,6.21,4.86,7.43C49.66,128.09,43.17,132,36.56,132c-6.08,0-11.49-4.06-11.49-11.62,0-14.59,15-18.1,25.26-18.1a104.35,104.35,0,0,1,19.45,2.3l1.63-2.71,35-58.62,23.1,75.1c4.86,15.94,9,23.1,18.37,23.1l-.14.95h-56l.13-.95c12.43,0,12.83-10.4,9.59-21.88ZM72.76,102l-1.63,2.84c8.51,1.62,17.29,3.51,27.16,3.91L88.7,75Z"/><path class="cls-1" d="M178.12,91.22c6.35-14.46,15.94-20.67,24.72-20.67,11.21,0,20.94,10.13,20.94,26.34,0,23.77-19.45,46.46-44.71,46.46-17.16,0-31.2-12.83-28.37-31.2l8.65-55.65c.67-4.46,2.56-13.1-3.52-13.1-1.75,0-4.18,1.35-6.61,3.1l-.41-.67c6.89-5.27,16.61-10.27,25.94-10.27,7.56,0,11.88,4.46,10.13,14.86ZM172.58,127c-1.75,10.94-1.89,15.26,5.68,15.26,11.48,0,20.12-28.63,20.12-50.92,0-9.46-2.7-13.24-6.34-13.24-4.6,0-10.54,6.08-14,14.73Z"/><path class="cls-1" d="M306.45,100.94c0,22.42-20.26,42.41-44.31,42.41-19.31,0-32.69-12.69-32.69-30.52,0-23.1,19.86-42.28,44.17-42.28C292.94,70.55,306.45,83.11,306.45,100.94ZM281.59,85.68c0-8-1.75-14.05-8.1-14.05-14.86,0-19.32,42.68-19.32,56.73,0,8,1.9,13.91,8.11,13.91C277.27,140.38,281.59,101.62,281.59,85.68Z"/><path class="cls-1" d="M383.85,125.93c-.27,1.76-1.75,10.67,2.7,10.67,3.38,0,7-4.59,8-10.94h1c-1.76,11.89-12.43,18.1-21.75,18.1-7.43,0-14.45-2.57-14.32-15.67-5.13,9.46-16.88,15.26-26.74,15.26-10.27,0-18.91-5.8-16.62-19.85L321,92c.68-4.46,2.57-13.11-3.51-13.11-1.76,0-4.19,1.35-6.62,3.11l-.4-.68c6.88-5.26,16.61-10.26,25.93-10.26,7.56,0,11.35,4.59,9.73,14.86l-5.41,34c-.81,5.53-2.43,16.61,6.62,16.61,5.4,0,11.89-8.1,12.7-13.1l8-50.66a122.58,122.58,0,0,0,24.45-1.35Z"/><path class="cls-1" d="M401.55,71.49h5.94c9.46-.13,17.7-1.08,23.51-5.4,4.72-5.13,6.21-13.64,7.69-21.61h1.36l-4.33,27h14.46l-.27,1.35H435.59l-8.38,53.09c-.54,3.65-.94,10.67,3.52,10.67,3.37,0,7-4.59,8-10.94h.95c-1.76,11.89-11.35,18.1-22.56,18.1-8.64,0-16.21-3.24-13.23-22.83l7.42-48.09h-10Z"/><path class="cls-1" d="M504.75,52.31a107.37,107.37,0,0,1,21.07-3c-14.05-2.43-28-13.64-39.57-13.64-4.87,0-8.51,1.89-8.51,7.83,0,3.52,2.56,6.22,5,7.43C481,59.47,474.36,63.39,468,63.39c-6.62,0-11.62-4.59-11.62-11.89,0-13,13.38-17.83,25.26-17.83,17.43,0,33.64,15.13,49.71,15.13,3.24,0,4.73-2,4.73-4,0-2.43-2-4.86-5.67-3.51-2.71-5,1.21-8.38,5.4-8.38a6.15,6.15,0,0,1,6.48,6.49,11.21,11.21,0,0,1-8.24,10.13l13.1,58.75,32.69-60.37h41.07l-.14.94c-14,0-15.13,7-17.69,23.37l-7.3,45.93c-2.56,15.8-3.78,23.36,10.27,23.36l-.14.95H552l.13-.95c12.7,0,13.78-5.13,16.62-23.36l10.53-66.33L527.85,147l-22-93.07-7.7,48.36c-2.83,17.7-6.08,39.17,14.19,39.17l-.14.95H469.09l.14-.95c20.8,0,24.71-22.55,27.82-41.73Z"/><path class="cls-1" d="M637.13,100v1.63c0,13,6.08,25.12,20.94,25.12a27.51,27.51,0,0,0,21.21-10l.81.41c-8.65,14.45-22,26.2-39.58,26.2-16.89,0-28.91-10.8-28.91-28.9,0-23.1,19.72-43.9,45.39-43.9,10.53,0,25.93,2.56,25.93,15.13C682.92,95.67,669.55,105.26,637.13,100Zm.14-1.08c18.1,1.08,25.66-10.13,25.66-18.5,0-4.86-2.56-8.78-7.16-8.78C645.37,71.63,638.08,85.27,637.27,98.91Z"/></svg>