<svg id="Layer_1" data-name="Layer 1" xmlns="http://www.w3.org/2000/svg" viewBox="0 0 708 182"><defs><style>.cls-1{fill:#202020;}</style></defs><path class="cls-1" d="M85.71,40.89a31.7,31.7,0,0,1,5.48-.62c11.48,0,23.27,4.45,23.27,14.17,0,15.31-18.72,17.69-31.13,18.2l-.11.21c10,.1,30.31,2.48,30.31,16.65,0,17.07-20.07,23.27-35.69,23.27H37.51l.1-.72c10.76,0,11.69-5.79,13.65-17.9L56.75,59c2.07-13.65,17.17-16.65,25.34-17.06v-.11c-5.28,0-10.76-2.38-17.28-5.17-3.1-1.34-11-5.58-16.65-5.58-3.72,0-6.51,1.44-6.51,6a6.66,6.66,0,0,0,3.82,5.69A11.32,11.32,0,0,1,34.2,52.27c-5.07,0-8.89-3.52-8.89-9.1,0-9.93,10.23-13.66,19.34-13.66C58,29.51,70.4,41.1,82.71,41.1c2.48,0,3.62-1.55,3.62-3.1,0-1.87-1.56-3.73-4.35-2.69-2.07-3.83.93-6.42,4.14-6.42a4.71,4.71,0,0,1,5,5C91.08,37.27,87.67,39.86,85.71,40.89ZM70.92,100c-1.56,9.82-1.66,12.1,4.75,12.1,12.83,0,16.24-16.34,16.24-27.1,0-7.45-3.1-11.69-13.44-11.69H75.16Zm6.92-44.06L75.26,72.44h2.9c12.61,0,16.44-9.42,16.44-21,0-5.69-2.79-10-7.76-10C82.71,41.41,79.6,44.72,77.84,55.89Z"/><path class="cls-1" d="M141.35,100.15c-.21,1.35-1.34,8.17,2.07,8.17,2.58,0,5.38-3.51,6.1-8.37h.73c-1.35,9.1-9.52,13.86-16.66,13.86-6.62,0-12.41-2.49-10.13-17.48L131.11,47c.52-3.41,2-10-2.69-10-1.34,0-3.2,1-5.07,2.38l-.31-.52c5.28-4,12.73-7.86,19.86-7.86,5.79,0,9.1,3.42,7.76,11.38Z"/><path class="cls-1" d="M213,81c0,17.17-15.51,32.47-33.92,32.47-14.79,0-25-9.72-25-23.37,0-17.68,15.2-32.37,33.82-32.37C202.68,57.75,213,67.37,213,81ZM194,69.33c0-6.1-1.34-10.75-6.2-10.75C176.41,58.58,173,91.26,173,102c0,6.1,1.45,10.65,6.2,10.65C190.68,111.22,194,81.54,194,69.33Z"/><path class="cls-1" d="M268.46,112.05c-2.89,18.2-23.89,36.09-44.26,36.09-23.79,0-37.65-20.89-55.13-20.89-7.44,0-10.13,4.34-10.13,7.86,0,3,2.06,5.69,6.51,5.69,2.9,0,6-1.86,6.41-4.86,4.87.31,7.14,4.13,7.14,8.07,0,5.79-5,9.1-10.13,9.1-5.8,0-11.79-4-11.79-13.14,0-17.17,18.61-22.75,29.78-22.75,26.68,0,39.72,27.2,50.37,27.2,7.76,0,10.24-16.65,11.17-22.24l3.2-20.06c-4.13,7.24-10.85,11.37-18.72,11.37-8.89,0-15.51-7.65-15.51-19.13,0-16.44,14.17-36.61,33.1-36.61,9,0,12.41,4.86,18.51,4.86,3.21,0,5.58-1.34,8-4.45ZM252.23,98.4l4.44-28.14c1.35-8.37,1.45-11.68-4.34-11.68-8.79,0-15.41,21.61-15.41,38.78,0,5.69,1.24,11,6.1,11C246.85,108.32,251.6,102.22,252.23,98.4Z"/><path class="cls-1" d="M338.69,55.89l-3,19.55c11.07,0,20.38-5.18,22.75-16.24h.73l-6.93,33.4h-.72c2-10-4.87-16.44-15.93-16.44l-4.14,26.16c-1.14,7.35,0,9.52,4.55,9.52,20.07,0,32.17-11.58,38.17-29.89h1l-9.62,30.82H298.36l.1-.72c10.86,0,11.89-5.79,13.75-17.9L317.59,59c2.07-13.65,17.17-16.65,25.34-17.06v-.11c-5.27,0-10.76-2.38-17.27-5.17-3.1-1.34-11-5.58-16.65-5.58-3.72,0-6.52,1.44-6.52,6a6.67,6.67,0,0,0,3.83,5.69,11.33,11.33,0,0,1-11.27,9.52c-5.07,0-8.9-3.52-8.9-9.1,0-9.93,10.24-13.66,19.34-13.66,13.34,0,25.75,11.59,38.06,11.59,2.48,0,3.62-1.55,3.62-3.1,0-1.87-1.55-3.73-4.34-2.69-2.07-3.83.93-6.42,4.13-6.42a4.72,4.72,0,0,1,5,5c0,2.89-2.48,5.27-4.45,6.51l-.93.62c5.69-.82,12.1-.62,29-.62L374.17,65.3h-.94c.63-15.2-4.65-24-20.78-24C342.1,41.31,340.24,45.65,338.69,55.89Z"/><path class="cls-1" d="M419.68,75.64c1.13-7.45-.11-10.34-2.49-10.34-3.31,0-8.68,5.48-12.92,12.41l-5.49,34.75a94.45,94.45,0,0,0-18.72,1l6.11-39.3c.51-3.41,2-10-2.69-10-1.35,0-3.21,1-5.07,2.38L378.1,66c5.27-4,12.72-7.86,19.86-7.86,5.79,0,9.41,3.52,7.75,11.38l-1.44,7c8.17-13.13,17.78-18.82,25.23-18.82,8.07,0,10.45,6.93,8.9,16.86l-4,25.54c-.21,1.35-1.34,8.17,2.07,8.17,2.59,0,5.38-3.51,6.1-8.37h.73c-1.35,9.1-9.52,13.86-16.66,13.86-6.61,0-12.41-2.49-10.13-17.48Z"/><path class="cls-1" d="M448.84,58.47h4.55c7.24-.1,13.55-.82,18-4.13,3.62-3.93,4.76-10.45,5.9-16.55h1L475,58.47h11.07l-.21,1h-11l-6.41,40.64c-.42,2.8-.73,8.17,2.68,8.17,2.59,0,5.38-3.51,6.11-8.37H478c-1.34,9.1-8.69,13.86-17.27,13.86-6.62,0-12.41-2.49-10.14-17.48l5.69-36.82h-7.65Z"/><path class="cls-1" d="M508,78.12l-5.37,34.34a94.41,94.41,0,0,0-18.72,1l6.1-39.3c.52-3.41,2-10-2.69-10-1.34,0-3.21,1-5.07,2.38l-.31-.52c5.28-4,12.72-7.86,19.86-7.86,5.79,0,9.41,3.52,7.76,11.38l-1.35,6.62c3.21-7.86,9-18.41,18.93-18.41,8.79,0,12.62,5.48,12.62,11.38,0,6.62-5,13.65-13.35,13.65-4.44,0-8.17-2.79-7.55-8.69,4.14-.93,6.42-5.17,6.42-8.79,0-2.48-1-5-3.42-5C517.11,60.34,510.38,71.4,508,78.12Z"/><path class="cls-1" d="M549.89,74.09c.52-3.41,2-9.93-2.68-9.93-1.35,0-3.21,1-5.07,2.38l-.31-.52c5.27-4,12.72-7.86,19.85-7.86,5.8,0,8.69,3.52,7.45,11.38l-4.86,30.61c-.21,1.35-1.34,8.17,2.07,8.17,2.58,0,5.38-3.51,6.1-8.37h.73c-1.35,9.1-9.52,13.86-16.66,13.86-6.62,0-12.41-2.49-10.13-17.48Zm25.24-33.41c0,6.83-6.21,12.73-12.82,12.73-5.38,0-9.21-4.35-9.21-9.83,0-6.83,6.31-12.51,12.82-12.51C571.3,31.07,575.13,35.2,575.13,40.68Z"/><path class="cls-1" d="M596.64,80.3v1.24c0,9.93,4.66,19.23,16,19.23a21,21,0,0,0,16.24-7.65l.62.31c-6.62,11.07-16.86,20.06-30.3,20.06-12.93,0-22.13-8.27-22.13-22.13,0-17.68,15.1-33.61,34.75-33.61,8.06,0,19.85,2,19.85,11.58C631.7,77,621.46,84.33,596.64,80.3Zm.11-.83c13.86.83,19.65-7.76,19.65-14.17,0-3.72-2-6.72-5.48-6.72C603,58.58,597.37,69,596.75,79.47Z"/><path class="cls-1" d="M630.15,103.36a8.85,8.85,0,0,1,8.8-9.1c3.62,0,7.24,2.27,6.61,6.93a6.5,6.5,0,0,0-4.34,6.2c0,2.9,2.38,5.28,9.83,5.28,4.75,0,15.82-1.14,15.82-8,0-10.23-32.27-9.72-32.27-27.09,0-14.28,15.93-19.86,28.86-19.86,8.58,0,19.23,2.07,19.23,9.2a8.12,8.12,0,0,1-8.06,8.28c-3.21,0-6.31-2.17-5.8-6.41a5.48,5.48,0,0,0,3.83-5.07c0-3.31-4.34-5.17-10.44-5.17-4.66,0-11.69,2.07-11.69,8.06,0,10.35,31.75,8.28,31.75,25.65,0,15-17.89,21.2-31.85,21.2C641,113.49,630.15,111.43,630.15,103.36Z"/></svg>