<svg id="Layer_1" data-name="Layer 1" xmlns="http://www.w3.org/2000/svg" xmlns:xlink="http://www.w3.org/1999/xlink" viewBox="0 0 708 768"><defs><style>.cls-1{fill:none;}.cls-2{fill:#fdfbf5;}.cls-3{fill:#09553f;}.cls-4{fill:#074e67;}.cls-5{fill:#1c1c1c;}.cls-6{fill:#202020;}.cls-7{fill:#f6a800;}.cls-8{clip-path:url(#clip-path);}.cls-9{fill:#fff;}</style><clipPath id="clip-path"><rect class="cls-1" x="243.47" y="375.83" width="152.47" height="32.34"/></clipPath></defs><g id="Layer_1-2" data-name="Layer 1-2"><circle class="cls-2" cx="354" cy="384" r="284.32"/><circle class="cls-1" cx="354" cy="384" r="284.32"/><path class="cls-3" d="M445,648.06,419,628.87h0l-24.88-15.64-62.19-54-11-12.44-10.66-17.06-10.67-31.27h0l-6.39-11.73h0L271.9,461.12,254.84,436.6l-11.72-24.88-5.34-12.44-10.3-41.58h0l-23.1-67.17h0L198,278.45h0L173.1,243.26h0l-27-28.43h0l-12.44-10.66c-.71,1.06-1.42,1.78-2.13,2.84l11.73,10,27,28.43,24.88,35.19,6,11.73,22.39,66.1L233.88,400h0v.36l5.33,12.79h0l12.08,25.24h0l17.06,24.87h0l21.32,25.59,6,11.38,10.67,31.27h0v.36l11,17.41h0l11.73,12.44h0l62.2,54h0l24.87,15.64,25.95,19.19h0l3.2,1.78,4.26-1.43Z"/><path class="cls-3" d="M436.45,482.45h0l-5-12.44h0l-6.4-12.09h0l-28.43-36.25-12.09-23.1-19.19-66.1h0L354,310.08h0l-47.62-54h0l-30.57-24.17h0L225,201.68,176.3,162.23c-1.07.71-1.78,1.42-2.84,2.13l49.75,39.81h0l50.47,30.56,30.21,24.17,46.91,53.31,11,21.68,18.83,65.39h0v.36l12.44,23.45h0l28.44,36.25,6.39,11.73,5,12.09,1.78,10.3L435,505.9l-5,43.36v.36l1.42,14.21h0l2.84,11h0v.35l6,11.73h0l11.73,16.35h0l13.15,13.15h0l11,7.11h0l16,7.46,3.91-2.13h-.36l-18.12-8.17L467,613.94l-12.8-13.15-11.37-16-5.69-11.37-2.84-10.66-1.42-13.86,5-43h0l-.35-12.79h0Z"/><path class="cls-3" d="M169.19,185.33h0L226.06,228h0l33.05,21,16.35,12.79L284,272.4l5.33,12.44,10.3,41.59h0l9.6,24.16h0l19.9,35.54h0l20.26,29.5h0V416l50.82,48.69,9.6,13.15,4.62,10.66L413,500.57l-6.4,15.64-10,17.06h0c0,.35,0,.35-.36.71h0l-1.77,19.9h0v.71h0L398.78,566h0v.36l15.64,24.17h0l23.81,27h0l16,13.5h.36l19.19,9.6,5-.71-21.32-10.66-15.64-13.15-23.45-27L402.69,564.9l-4.27-10.66,1.43-19.2,9.95-17h0l6.39-16v-.71l1.43-12.79h0v-.71h0l-5-11.73h0v-.36l-9.59-13.5h0l-50.47-48-19.9-29.5-19.91-35.18-9.59-24.17-10.31-41.58h0l-5.68-12.44h0V271l-8.53-11.37h0l-17.06-13.5h0l-33.06-20.62L172,182.84h0l-10-7.81-2.48,2.48Z"/><path class="cls-3" d="M196.56,160.45l30.56,27.37h0L246,200.61h0l41.23,22L377.46,287l12.79,13.15L407,324.29l5,19.55-1.42,31.28h0L413,399.28v.36l11.37,30.21h0l13.15,23.45,9.24,22.39L451,495.6l5.33,50.46h0l3.91,16h0v.36l6.05,13.15h0v.36l7.81,11.37h0L491.18,604h.71l17.42,8.53H510l10,1.42c1.42-1.06,2.84-1.77,4.27-2.84L511.09,609l-16.71-8.18-16.7-16.35-7.46-11-5.69-12.09-3.91-15.63-5.33-50.47h0L451,475h0l-9.59-22.74h0l-13.15-23.46-11.37-29.85-2.49-23.82,1.42-31.27v-.71l-5.33-20.26c0-.35,0-.35-.36-.71l-17.06-24.52h0l-13.15-13.15h0l-90.62-64.33h0l-41.58-22.39-18.48-12.44L198.69,158h0l-8.17-6.4-2.85,2.13Z"/><path class="cls-3" d="M623,473.92,592.47,439.8l-6.75-9.6-12.79-25.59h0L565.82,394h0L558,386.13h0l-24.52-17.06L526,361.25l-13.5-22.74L489.05,272.4l-.35-.35-12.09-16.7h0l-9.95-9.24h0L448.54,233,418,204.17h0l-43.36-29.86h0l-66.1-38.73-23.46-18.13L277.59,110l-3.91,1.06,9.24,8.89h0l23.46,18.12h0l66.1,38.74L415.13,206l30.56,28.78h0l18.48,13.51,9.95,9.24,12.09,16L509,339.58h0v.35L522.81,363h0v.36l7.82,7.82h0l24.88,17.05,7.46,7.47,6.76,10.3,12.79,25.59h0l6.75,9.6h0l31.28,35.18h0l1.78,1.43c.35-1.07.71-2.49,1.06-3.56Z"/><path class="cls-4" d="M457.42,120.29h0l7.82,7.47,16,20.61L505,189.6h0l37,57.22h0l36.25,47.62,24.52,50.47h0l15.28,22.39h0l.36.35L638,384v-4.62L620.9,365.16,606,343.48,581.46,293h0l-36.61-48-37-56.86L484.08,147h0l-16.35-20.61h0l-3.56-3.56-8.53-3.2Z"/><path class="cls-5" d="M234.59,636.69h0l-22-6.4h-.71c4.62,2.84,9.6,5.33,14.57,7.82l7.11,2.13,60.77,21.68c6.76,1.42,13.51,2.49,20.62,3.56Z"/><path class="cls-4" d="M418.68,120.65h0l41.58,33.41,12.8,16,35.54,56.51,27,48h0l20.61,27,21.33,35.89h0l35.18,50.11h0L636.9,410.3c0-1.42.35-3.2.35-4.62l-21.68-20.61L580,334.6l-21.32-35.9h0l-20.61-27-26.66-47.62h0L475.9,167.56h0l-12.79-16h0l-42.3-33.41-14.21-13.5-6.4-1.07Z"/><path class="cls-3" d="M209.35,151.21l26.3,25.24h0l19.9,13.15h0l42.65,22.74,32.34,23.1h0l38,24.17,28.08,23.1,25.59,25.59L434,326.07l5,16.7,2.49,50.83h0l3.91,21.32h0l28.07,102h0v.35l19.91,37.32h0a.35.35,0,0,0,.35.36L511.8,571.3h0l6,3.9h.35l8.89,2.85h10.31l27.72-6a39.13,39.13,0,0,0,3.55-4.27h-1.78l-29.14,8.18H528.5L520,573.43l-5.69-3.56-17.77-16.34-19.54-37-27.72-102-3.91-21-2.49-51.18v-.71l-5-17.06v-.71l-12.08-18.13h0L400.2,280.58h0l-28.07-23.1h0l-38.39-24.17-33.05-23.46h0L258,187.11,238.5,174l-26.66-25.23h0l-7.46-6.4-3.2,2.13Z"/><path class="cls-3" d="M414.06,648.06h0l-42.65-22.74-31.63-25.24h0l-35.18-19.9h0l-25.94-11.37h0l-36.26-9.6L225,552.1l-7.82-6-7.11-9.59-21-34.48-35.18-90.27L145,377.25l-8.53-43h0l-7.82-30.56h0l-9.24-23.81h0l-12.8-23.81h0l-3.55-5.33a16.61,16.61,0,0,0-1.78,3.55l2.13,3.55L116.24,282l8.88,23.1,7.82,30.21,8.18,43h0l9.24,34.48h0l35.18,90.62h0v.36l21,34.83h0l7.11,9.95h0v.36l8.17,6.39h.36l17.77,7.11h.35l36.25,9.6,25.59,11,34.48,19.55,32,25.23h.36l42.64,22.75,12.09,8.53,4.62-1.42-14.93-10.31Z"/><path class="cls-3" d="M546.27,469.3h0l-12.79-8.53-9.6-9.6-6.75-11.37-29.86-77.12-17-54.74h0l-5.69-11.72h0L457.07,287h0L373.9,219.81h0l-62.55-38h0L274,161.52l-14.58-10.66L235.3,126l-3.56,1.42L257,153.35h0l14.92,11h0L309.58,185l62.19,37.67,82.45,66.1,7.11,8.89L467,309l16.7,54.38h0l30.21,77.83h0v.35L521,453.3h0v.36l10,9.95h0l12.79,8.53L568,492.4h0l36.25,25.94c.71-1.07,1.07-2.13,1.78-3.2l-35.9-25.59Z"/><path class="cls-3" d="M92.07,464.32h0l-3.91-19.19h0l-5-13.51h0L70.75,408.17c.35,3.2.71,6,1.06,9.24L80,433.05l4.62,12.79,3.91,18.84,3.55,30.56c1.42,3.55,3.2,7.11,5,10.66l-5-41.58Z"/><path class="cls-4" d="M627,330.33l-16.35-38h0l-7.47-11.73h0L569,240.77l-21-29.85h0l-33.41-43.36-16.7-29.14c-2.14-1.07-4.27-2.49-6.05-3.55L511.8,169h0l33.4,43.36,21,29.86h0L600.29,282l7.11,11.37,16.35,38h0l11.37,17.77h0v.36l1.42,1.42a48.93,48.93,0,0,1-.71-7.11Z"/><path class="cls-3" d="M330.9,123.49h0l95.25,64.33,51.53,51.53,12.44,16,6.75,11.37L515,313.63h0l13.15,25.95h0a.34.34,0,0,0,.35.35l12.08,12.44h0l27.73,22.39,8.53,10.31,17.41,29.14h0l8.17,11h0l26.66,29.49c.35-1.42.71-2.84,1.06-4.26l-24.87-27.72-8.18-10.66-16.7-28.79h0l-8.53-10.66h0l-27.72-22.75L532.41,337.8l-12.79-25.24L501.49,265.3h0l-7.11-11.73h0l-12.44-16.35h0L428.63,185h0l-95.95-64.69-23.1-17.06A20.64,20.64,0,0,1,305,104l25.95,19.54Z"/><path class="cls-3" d="M615.93,494.53l-19.19-17.06-28.43-33.41-18.49-26.3h0l-23.45-23.1-7.11-8.88L505.76,363l-6.05-14.21L485.5,301.55h0l-8.18-18.48v-.71L462,264.59h0l-24.52-17.06-23.81-21h0l-29.86-22.39h0L363.24,191h0l-76.41-43-16.35-12.8-16-17.77-3.56,1.42L268,137.71h0l16.71,13.15h0l77.12,43.71L381.37,207l29.85,22L435,250h0l24.52,17.06,14.93,17.42,7.82,18.12,14.21,47.27h0l6.05,14.22h0l14.21,23.45h0l7.47,9.24h0l23.45,22.75,18.48,26.3h0L594.6,479.6h0l19.2,17.06h0l.71.71c.35-1.06,1.06-2.13,1.42-3.2Z"/><path class="cls-4" d="M525.66,158h0L558,196.7l23.81,33.06h0L599.94,249h0l7.81,6.4c-1.42-2.85-2.84-5.34-4.26-8.18l-1.07-1.06-17.77-18.84-23.81-33.05h0l-23.1-27.72c-4.26-3.56-8.53-7.11-13.15-10.31l1.07,1.42Z"/><path class="cls-3" d="M117.3,523.32,105.93,450.1h0l-5.33-21h0L70.75,360.19c-.36,2.49-.36,5-.71,7.46l27,62.55,5.33,20.61L113.75,524h0l4.62,19.19c2.13,3.2,4.62,6.4,6.75,9.59l-2.48-7.1Z"/><path class="cls-5" d="M321,642.37h0l-35.54-12.79h-.36l-61.84-14.22h0l-34.83-3.9-7.81-1.78c2.48,1.78,4.62,3.55,7.1,5.33h0l34.83,3.55,61.84,14.22,35.54,12.79,53.31,21.68a57.39,57.39,0,0,0,7.82-.71L321,642.37Z"/><path class="cls-3" d="M144.67,271.34l22.39,74.28h0l13.86,33.76,6.4,25.59h0l7.11,18.48h0L214.33,459h0l24.88,34.12,16.7,29.5h0l8.88,10.66h0l37,28.78h0l40.16,27.37,38.73,33.05h0l33.77,19.9,21,14.22,4.26-1.42-23.46-16h0L383.5,621.05l-38.74-33h0L304.6,560.63,268,532.2l-8.53-10.31-16.7-29.49h0l-24.88-34.12L198,423.09,190.87,405l-6.4-25.59h0l-13.86-33.76-22.74-75.35h0L129.39,233v-.72l-9.6-10.3c-.71,1.06-1.42,1.78-2.13,2.84l8.88,9.95Z"/><path class="cls-3" d="M411.57,657h0l-43.35-20.62-29.86-20.61h0L318.1,603.64h0l-35.54-13.86h0l-56.15-10L209,574.14l-9.6-7.47-25.59-29.14h0l-10.3-12.08-6.4-11.37-11.37-54h0L107,328.2v-.35L96.34,302.26h0l-7.11-11.73h0l-2.49-3.2c-.36,1.42-1.07,2.84-1.42,4.27L86.38,293l6.76,11.37,10.66,25.23,38,131.5,11.37,54v.36h0L160,527.23h0v.35L170.61,540h0l25.95,29.14h0l9.95,7.82a1.22,1.22,0,0,0,.71.36l17.77,6h.36L281.14,593l35.19,13.51,20.26,12.08,29.85,20.62h0l43.36,20.61,3.2,2.13,4.62-1.06L411.57,657Z"/><path class="cls-6" d="M354,99.68c157.09,0,284.32,127.23,284.32,284.32S511.09,668.32,354,668.32"/><path class="cls-2" d="M365.73,615.36v-3.55l3.55-.35.36,3.55Zm17.77-1.77-.36-3.56,3.56-.35.35,3.55Zm17.77-2.85-.71-3.55,3.55-.71.71,3.55Zm17.41-4.26-1.06-3.55,3.55-1.07,1.07,3.55Zm17.06-5.69-1.06-3.2,3.19-1.42,1.43,3.2ZM452.09,594l-1.42-3.2,3.2-1.42,1.42,3.2Zm16-8.17-1.77-3.2,3.19-1.78,1.78,3.2Zm15.29-9.6-2.14-2.84,2.85-2.13,2.13,2.84Zm14.57-10.66-2.14-2.84,2.85-2.14,2.13,2.85Zm13.5-11.37L509,551.75l2.49-2.49,2.49,2.49Zm12.8-12.8L521.75,539l2.49-2.48,2.48,2.48ZM536,527.94l-2.84-2.14,2.13-2.84,2.85,2.13Zm10.67-14.22-2.85-2.13,2.14-2.85,2.84,2.14Zm9.59-15.28-3.2-1.78,1.78-3.2,3.2,1.78Zm8.18-15.64-3.2-1.42,1.42-3.2,3.2,1.42Zm7.1-16.35L568.31,465l1.42-3.2,3.2,1.07Zm5.69-17.06-3.55-1.06c.35-1.07.71-2.49,1.06-3.56l3.56,1.07c-.36,1.07-.71,2.49-1.07,3.55ZM581.46,432l-3.56-.71c.36-1.07.36-2.49.71-3.56l3.56.71A12.86,12.86,0,0,1,581.46,432Zm3.19-17.77-3.55-.36c0-1.06.36-2.48.36-3.55l3.55.35a10.85,10.85,0,0,1-.36,3.56Zm1.78-17.77-3.55-.36a12.28,12.28,0,0,1,.35-3.55h3.56a15.72,15.72,0,0,0-.36,3.91Zm-3.2-17.77v-3.55h3.56v3.55Zm-1.06-17.77c0-1.07-.36-2.49-.36-3.55l3.55-.36c0,1.07.36,2.49.36,3.55Zm-2.49-17.42c-.36-1.06-.36-2.48-.71-3.55l3.55-.71c.36,1.07.36,2.49.71,3.55Zm-3.56-17.05a10.71,10.71,0,0,1-.71-3.56l3.56-1.06.71,3.55Zm-5-17.06-1.07-3.2,3.2-1.07,1.07,3.56Zm-6-16.35-1.42-3.2,3.19-1.42,1.43,3.2Zm-7.47-15.64-1.77-3.2,3.2-1.78,1.77,3.2Zm-8.88-15.28L547,259.26l2.84-1.78,1.78,2.84Zm-10-14.93-2.14-2.84,2.85-2.13,2.13,2.84Zm-10.66-13.5L526,230.82l2.85-2.48,2.48,2.84Zm-12.09-13.15L513.57,218l2.49-2.49,2.49,2.49Zm-13.15-12.09-2.84-2.13,2.13-2.84,2.84,2.13Zm-13.5-10.66-2.85-2.13,2.14-2.84,2.84,2.13Zm-14.93-10L471.64,186l1.77-3.2,3.2,1.78Zm-15.28-8.89-3.2-1.77,1.42-3.2,3.2,1.78Zm-16-7.46-3.2-1.42,1.42-3.2,3.2,1.42Zm-16.35-6.4-3.2-1.06,1.06-3.56,3.56,1.07Zm-17.06-4.62-3.56-.71.71-3.55,3.56.71Zm-17.42-3.55-3.55-.71.71-3.55,3.55.71ZM375,154.41l-3.56-.35.36-3.56,3.55.36Zm-17.77-.71H354v-3.55h3.55Z"/><path class="cls-7" d="M223.57,407.1h7.82v24.17a18.37,18.37,0,0,1,13.15-6.75h3.55a10.07,10.07,0,0,1,11.37,8.88V470h-7.81V436.24a4.29,4.29,0,0,0-3.56-4.62h-4.26a19.91,19.91,0,0,0-12.44,4.62V470h-7.82Z"/><path class="cls-7" d="M277.59,459.34a4.27,4.27,0,0,0,3.55,4.62h12.44a4.27,4.27,0,0,0,4.62-3.55v-4.26H306v3.19a10.09,10.09,0,0,1-8.88,11.38H281.5a10.08,10.08,0,0,1-11.37-8.89V436.6A10.08,10.08,0,0,1,279,425.23h16a10.09,10.09,0,0,1,11.38,8.88v15.64H278.3v9.59Zm4.62-28.07a4.27,4.27,0,0,0-4.62,3.55v8.89h20.26v-7.82a4,4,0,0,0-3.56-4.62H282.21Z"/><path class="cls-7" d="M329.83,485.29h-7.46l5.33-14.93-16.35-45.49h8.18l12.08,36.61,12.44-36.61h7.82Z"/><polygon class="cls-7" points="600.29 185.33 600.29 408.17 533.48 408.17 533.48 458.99 482.65 408.17 243.47 408.17 243.47 185.33 600.29 185.33"/><path class="cls-2" d="M338.72,337.44h-7.47l5.34-14.92-16.35-45.14h8.17L340.49,314l12.44-36.61h7.82Z"/><path class="cls-2" d="M374.61,311.14a4.27,4.27,0,0,0,3.56,4.62h12.44a4.28,4.28,0,0,0,4.62-3.55v-4.27h7.82v3.2a10.09,10.09,0,0,1-8.89,11.38h-16a10.1,10.1,0,0,1-11.38-8.89V288a10.09,10.09,0,0,1,8.89-11.37h16a10.1,10.1,0,0,1,11.38,8.88v15.64H375v9.95Zm4.62-27.72a4.29,4.29,0,0,0-4.62,3.56v8.88h20.26V288a4.28,4.28,0,0,0-3.55-4.62H379.23Z"/><path class="cls-2" d="M436.81,277a10.09,10.09,0,0,1,11.37,8.89v36.25h-7.82v-6.4a18.41,18.41,0,0,1-13.15,6.76H423a10.1,10.1,0,0,1-11.38-8.89v-7.11a10.5,10.5,0,0,1,10-11.37h3.91A101.36,101.36,0,0,1,440,296.57V288a4.29,4.29,0,0,0-3.56-4.62H425.08a4,4,0,0,0-4.26,3.91v2.49h-7.47V288a10.09,10.09,0,0,1,8.89-11.37h2.48ZM424,301.19a4,4,0,0,0-4.62,3.56v6.39a4.27,4.27,0,0,0,3.56,4.62h5a22.12,22.12,0,0,0,12.44-4.62v-10.3H424Z"/><path class="cls-2" d="M459.91,259.26h7.82v24.16a18.37,18.37,0,0,1,13.15-6.75h3.55a10.08,10.08,0,0,1,11.37,8.88v36.26H488V288a4.29,4.29,0,0,0-3.56-4.62h-4.26A19.91,19.91,0,0,0,467.73,288v33.77h-7.82Z"/><path class="cls-2" d="M511.09,304.39,509,261.74h9.24l-2.13,42.65Zm-1.78,17.77v-9.24h8.53v9.6Z"/><polygon class="cls-2" points="266.57 251.79 263.02 251.79 263.02 207.01 309.22 207.01 309.22 210.56 266.57 210.56 266.57 251.79"/><g class="cls-8"><polygon class="cls-2" points="293.94 375.83 288.96 375.83 256.62 408.17 261.6 408.17 293.94 375.83"/><polygon class="cls-2" points="328.77 375.83 323.79 375.83 291.45 408.17 296.43 408.17 328.77 375.83"/><polygon class="cls-2" points="311.35 375.83 306.38 375.83 274.04 408.17 279.01 408.17 311.35 375.83"/><polygon class="cls-2" points="271.55 375.83 243.47 403.9 243.47 408.17 244.18 408.17 276.52 375.83 271.55 375.83"/><polygon class="cls-2" points="259.11 375.83 253.78 375.83 243.47 386.49 243.47 391.46 259.11 375.83"/><polygon class="cls-2" points="395.58 378.67 395.58 375.83 393.45 375.83 361.11 408.17 366.08 408.17 395.58 378.67"/><polygon class="cls-2" points="395.58 396.08 395.58 390.75 378.52 408.17 383.5 408.17 395.58 396.08"/><polygon class="cls-2" points="363.6 375.83 358.62 375.83 326.28 408.17 331.25 408.17 363.6 375.83"/><polygon class="cls-2" points="381.01 375.83 376.04 375.83 343.69 408.17 348.67 408.17 381.01 375.83"/><polygon class="cls-2" points="346.18 375.83 341.21 375.83 308.86 408.17 313.84 408.17 346.18 375.83"/></g><path class="cls-3" d="M215.39,551V514.79H174.88V372.27H399.14V514.79H251.29ZM182,507.68H222.5v25.94l25.95-25.94H392V379.38H182Z"/><rect class="cls-9" x="206.19" y="326.07" width="3.55" height="17.06" transform="translate(-175.69 245.05) rotate(-45)"/><rect class="cls-9" x="227.53" y="316.8" width="3.55" height="14.22" transform="translate(-89.54 87.61) rotate(-18.16)"/><rect class="cls-9" x="195.3" y="348.59" width="3.55" height="14.22" transform="translate(-202.33 432.09) rotate(-71.84)"/><rect class="cls-7" x="435.11" y="433.05" width="3.55" height="17.06" transform="translate(-184.28 438.26) rotate(-45)"/><rect class="cls-7" x="413.75" y="445.17" width="3.55" height="14.22" transform="translate(-120.27 152.05) rotate(-18.16)"/><rect class="cls-7" x="445.74" y="413.22" width="3.55" height="14.22" transform="translate(-91.31 714.64) rotate(-71.85)"/></g></svg>