<svg id="Layer_1" data-name="Layer 1" xmlns="http://www.w3.org/2000/svg" viewBox="0 0 708 768"><defs><style>.cls-1{fill:#f6a800;}</style></defs><path class="cls-1" d="M34,431.91a15.78,15.78,0,1,0,22.36,22.27,19,19,0,0,0,5.16-13.06l8,.41a27.1,27.1,0,0,1-7.45,19c-9.86,9.9-24.93,10.12-34.64.45s-9.26-24.65.75-34.69a26.41,26.41,0,0,1,18.31-7.62l1,8.45A17.83,17.83,0,0,0,34,431.91Z"/><path class="cls-1" d="M125.4,379.78C133.14,391,130,405.91,118.25,414s-26.82,5.69-34.55-5.54-4.57-26,7.23-34.15S117.66,368.54,125.4,379.78Zm-34,23.43a16.12,16.12,0,0,0,22.38,4,15.95,15.95,0,1,0-22.38-4Z"/><path class="cls-1" d="M158.19,336.08l35.35,20.13-12.87-29.83,8.1-3.49,18.81,43.6-7.91,3.41L164.4,349.8l12.85,29.78-8.16,3.52-18.81-43.61Z"/><path class="cls-1" d="M265.71,301.32l1.83,7.87-14.4,3.35,8.95,38.39L253.17,353l-8.95-38.39L229.82,318,228,310.11Z"/><path class="cls-1" d="M334.66,331.35l-23.15,1.54L308,343.18l-9.41.63L316.2,295l9.41-.62,23.66,46-9.75.65Zm-3.77-7.57-9.58-19.35-7.07,20.46Z"/><path class="cls-1" d="M406,304.78a15.77,15.77,0,1,0-3.52,31.35A19,19,0,0,0,416,332l4.66,6.53a27,27,0,0,1-19.51,6c-13.89-1.55-23.44-13.21-21.91-26.83s13.52-22.58,27.61-21a26.38,26.38,0,0,1,17.36,9.6l-6,6A17.84,17.84,0,0,0,406,304.78Z"/><path class="cls-1" d="M498.35,317.25,496.1,325l-14.21-4.12-11,37.86-8.8-2.55,11-37.86-14.21-4.12,2.25-7.76Z"/><path class="cls-1" d="M593.26,362.07l-4.43,33.62,29.22-17.14,8.7,5.78-26.27,39.54-6.89-4.58L612.3,391l-27.76,16.41-4.92-3.27L584,372.21l-18.77,28.24-7-4.65,26.27-39.54Z"/><path class="cls-1" d="M687.6,439.24,682,444.88l-18.28-18.06-8.25,8.35,16.41,16.2L666.32,457l-16.41-16.21-8.38,8.49,18.86,18.64-5.58,5.64-25.33-25,33.37-33.77Z"/></svg>