<?xml version="1.0" encoding="utf-8"?>
<!-- Generator: Adobe Illustrator 23.0.6, SVG Export Plug-In . SVG Version: 6.00 Build 0)  -->
<svg version="1.1" id="Layer_1" xmlns="http://www.w3.org/2000/svg" xmlns:xlink="http://www.w3.org/1999/xlink" x="0px" y="0px"
	 viewBox="0 0 661 174" style="enable-background:new 0 0 661 174;" xml:space="preserve">
<style type="text/css">
	.st0{fill-rule:evenodd;clip-rule:evenodd;fill:#1C1C1C;}
	.st1{filter:url(#Adobe_OpacityMaskFilter);}
	.st2{fill-rule:evenodd;clip-rule:evenodd;fill:#FFFFFF;}
	.st3{mask:url(#mask-2_1_);fill-rule:evenodd;clip-rule:evenodd;fill:#1C1C1C;}
</style>
<title>banner</title>
<desc>Created with Sketch.</desc>
<g id="Page-1">
	<g id="contact" transform="translate(-630.000000, -276.000000)">
		<g id="banner" transform="translate(630.000000, 276.000000)">
			<path id="Fill-1" class="st0" d="M95.9,1.8c12.3,0,18.3,7.5,18.3,15.7c0,10.6-10,19.8-21,19.8c-6.9,0-13-4.8-11.1-12.6
				c6,0.1,9.6-5.3,9.6-10.3c0-4-3.7-9.2-10-9.2c-13.2,0-17,20.1-18.6,30.1l-7.9,50.3c-5.1,32.5-35.9,35.7-52.6,60.6l0.1,0.1
				C16,130,30.1,122.6,43.2,122.6c30.8,0,72.1,27.7,97.9,27.7c6.4,0,10.8-1.6,14.8-6.4l0.3,0.1c-11.1,21.9-24.4,29.2-38.9,29.2
				c-30.4,0-66.1-32.6-101.9-32.6c-5.2,0-9.3,1.1-14.1,8.2l-0.4-0.2c8.3-14.5,20.8-19.9,24.9-45.4l6.2-38.9
				C36.6,35.3,63.2,1.8,95.9,1.8"/>
			<g id="Group-5" transform="translate(0.000000, 0.717000)">
				<g id="Clip-4">
				</g>
				<defs>
					<filter id="Adobe_OpacityMaskFilter" filterUnits="userSpaceOnUse" x="0" y="0.5" width="156.7" height="172.5">
						<feColorMatrix  type="matrix" values="1 0 0 0 0  0 1 0 0 0  0 0 1 0 0  0 0 0 1 0"/>
					</filter>
				</defs>
				<mask maskUnits="userSpaceOnUse" x="0" y="0.5" width="156.7" height="172.5" id="mask-2_1_">
					<g class="st1">
						<polygon id="path-1_1_" class="st2" points="156.7,173 0,173 0,0.5 156.7,0.5 						"/>
					</g>
				</mask>
				<path id="Fill-3" class="st3" d="M82.5,24.5C81.9,27.3,82.4,30,84,32c2,2.5,5.4,4,9.2,4c10.9,0,20.5-9,20.5-19.3
					c0-10.5-8.9-15.2-17.8-15.2c-5.1,0-10.2,0.8-15.2,2.5c0.3,0,0.6,0,1,0c6.9,0,10.5,5.6,10.5,9.7c0,3-1.3,6.1-3.4,8.1
					C87.1,23.5,84.9,24.4,82.5,24.5 M73.7,6.8c-7.1,3.4-13.9,8.5-20,15c-11,11.7-19.1,27.4-21.5,41.9L26,102.6
					c-2.6,16.3-8.7,24.5-14.8,32c4.8-4.6,10.1-8.4,15.2-12.2c12.9-9.4,25.1-18.3,28.2-37.6l7.9-50.3c0.9-5.6,2.2-12.8,5-18.9
					C69.3,11.7,71.4,8.8,73.7,6.8 M15.2,139.4c18.7,0,37.3,8.8,55.3,17.3c16.5,7.8,32.1,15.2,46.6,15.2c15.6,0,27.5-8.5,37.3-26.6
					c-3.5,3.4-7.4,4.7-13.4,4.7c-12.4,0-28.2-6.3-44.9-13c-18.2-7.3-37-14.8-53-14.8c-12.2,0-24.6,6.6-36.3,19.1
					C9.5,139.9,12.1,139.4,15.2,139.4 M117.1,173c-14.7,0-30.4-7.4-47-15.3c-17.9-8.5-36.4-17.2-54.9-17.2c-5.4,0-9.1,1.3-13.7,7.9
					l-0.2,0.4L0,148.1l0.3-0.5c2.7-4.6,5.8-8.4,8.8-12c6.5-7.8,13.2-15.9,16-33.2l6.2-38.9C33.7,48.8,41.8,32.9,53,21.1
					C65.5,7.8,80.7,0.5,95.9,0.5c13,0,18.8,8.1,18.8,16.2c0,10.8-10,20.3-21.5,20.3c-4.1,0-7.8-1.6-10-4.4c-1.9-2.4-2.4-5.5-1.6-8.8
					l0.1-0.4l0.4,0c2.3,0.1,4.4-0.8,6-2.4c1.9-1.9,3.1-4.6,3.1-7.4c0-3.6-3.4-8.7-9.5-8.7C68.2,5,64.7,27.3,63.6,34.7L55.6,85
					c-3.1,19.7-15.5,28.7-28.6,38.2c-4.1,3-8.2,6-12.1,9.4c9.2-7.4,18.8-11.2,28.2-11.2c16.2,0,35.1,7.5,53.4,14.8
					c16.6,6.6,32.3,12.9,44.5,12.9c6.7,0,10.7-1.8,14.4-6.3l0.3-0.3l1.1,0.6l-0.2,0.4C146.5,163.4,133.6,173,117.1,173"/>
			</g>
			<path id="Fill-6" class="st0" d="M143.3,51c0-5.8-2.4-10.4-8.3-10.4c-13.3,0-21.1,21.4-21.1,36.8c0,14.8,6.7,28.1,22.3,28.1
				c6.9,0,15.7-2.9,22.8-11.5l0.4,0.2c-9.4,15.6-25.3,26.7-42.7,26.7c-18.1,0-31-12-31-32c0-25.6,21.9-48.7,50.3-48.7
				c11.7,0,28.8,2.8,28.8,16.8c0,11.1-12.4,24.7-49.3,15l0.1-0.1C137.3,74.4,143.3,61.7,143.3,51"/>
			<path id="Fill-8" class="st0" d="M120.5,72.5c21,4.7,31.9,0.9,37.3-3.3c4.1-3.1,6.4-7.6,6.4-12.4c0-13.5-16.8-15.9-26-16.2
				c3.6,1.3,5.6,4.9,5.6,10.4c0,3.9-0.9,11.3-6.6,16.4C133.2,70.9,127.6,72.7,120.5,72.5 M130.8,40.8c-11.4,1.2-22.1,6.1-30.3,14.3
				c-9.1,9.1-14.3,21.3-14.3,33.6c0,19.2,12,31.5,30.5,31.5c15.2,0,30.4-8.9,40.3-23.5c-8.1,8.2-17.1,9.1-20.8,9.1
				c-11,0-22.8-7.5-22.8-28.6c0-8.2,2.1-17.3,5.6-24.4C122.2,46.6,126.3,42.5,130.8,40.8 M116.7,121.3c-19.1,0-31.5-12.8-31.5-32.5
				c0-12.5,5.3-25,14.6-34.3c9.7-9.6,22.5-14.9,36.2-14.9c8.8,0,29.3,1.7,29.3,17.3c0,5-2.5,9.8-6.8,13.2c-6,4.7-18.4,8.8-43.1,2.3
				l-0.6-0.2l0.5-1l0.3,0c9.2,1.1,16.2-0.4,20.9-4.6c5.5-4.8,6.3-11.8,6.3-15.6c0-3.7-1-9.9-7.8-9.9c-12.8,0-20.6,21.1-20.6,36.3
				c0,13.3,5.7,27.6,21.8,27.6c3.9,0,14-1.1,22.4-11.3l0.3-0.3L160,94l-0.3,0.4C149.7,111,133.2,121.3,116.7,121.3"/>
			<path id="Fill-10" class="st0" d="M197.8,87.1c-2.1,12.9-4.2,31.1,2.8,32.3l-0.3,0.3c-3.6,0.7-7.3,1.1-10.9,1.1
				c-12.4,0-22.7-5.4-19.8-24.2l8.6-55.1h-6.4l0.1-0.4h2c21.5-0.2,31.2-5,35.6-28.5h0.4l-4.7,28.5h10.3l-0.1,0.4h-10.3L197.8,87.1z"
				/>
			<path id="Fill-12" class="st0" d="M178.7,41.5l0,0.1l-8.6,55.1c-1.2,7.9-0.1,13.9,3.2,17.9c3.3,3.8,8.7,5.7,16,5.7
				c2.9,0,6.2-0.3,9.7-0.9c-5.8-3.2-3.9-19.8-1.9-32.4l7.5-46l3.4-20.5C203.3,36.5,194.2,40.8,178.7,41.5 M189.4,121.4
				c-7.7,0-13.3-2-16.8-6.1c-3.6-4.2-4.7-10.5-3.5-18.7l8.5-54.5h-6.4l0.2-1.4h2.4c20.7-0.1,30.7-4.2,35.1-28l0.1-0.4h1.5l-4.7,28.5
				h10.3l-0.2,1.4h-10.3l-7.3,45.1c-3.3,20.2-2.5,30.9,2.4,31.8l1,0.2l-1.1,1.1l-0.2,0C196.4,121,192.7,121.4,189.4,121.4"/>
			<path id="Fill-14" class="st0" d="M228.2,58.4c13.1-11.4,11.2-29.3-3.7-32.7c-1.2-11.9,8.3-19.2,16.8-19.2
				c6.4,0,12.2,4.3,12.2,13.9c0,13.9-13.6,29.9-25,38.4L228.2,58.4z"/>
			<path id="Fill-16" class="st0" d="M224.9,25.3c6.2,1.5,10.6,5.7,12,11.5c1.5,6.2-0.4,13-5.2,18.7C246.3,43.3,253,29,253,20.4
				c0-9.9-6-13.4-11.7-13.4c-4.5,0-9,2.1-12.2,5.5C226.9,14.9,224.4,19.1,224.9,25.3z M228.3,59.5l-0.7-1.2l0.3-0.3
				c6.8-5.9,9.9-13.9,8.1-21c-1.4-5.5-5.6-9.5-11.6-10.9l-0.3-0.1l0-0.4c-0.7-6.8,2-11.3,4.4-13.9c3.3-3.7,8.2-5.9,12.9-5.9
				c9.4,0,12.7,7.8,12.7,14.4c0,13.7-13.1,29.7-25.2,38.8L228.3,59.5z"/>
			<path id="Fill-18" class="st0" d="M237,105.1c0-7.5,5.7-14.4,13.9-14.4c5.8,0,11.7,3.6,10.8,10.9c-4.3,1.5-7,5.5-7,9.9
				c0,4.6,2.4,8.8,13.4,8.8c9.1,0,23.4-2.8,23.4-11.7c0-15.9-46.7-14.4-46.7-39.8c0-20.7,22.8-28.8,42.4-28.8
				c11.6,0,27.7,2.8,27.7,14.2c0,6.7-5.1,12.9-12.4,12.9c-5.1,0-9.9-3.4-9.1-10c3.3-1.2,6.1-4.3,6.1-8.1c0-5.1-5-8.5-13.8-8.5
				c-11.5,0-17.8,5.7-17.8,11.8c0,16.5,46,11.2,46,38.6c0,20-24.9,29.7-47.2,29.7C254.5,120.8,237,118,237,105.1"/>
			<path id="Fill-20" class="st0" d="M293.8,57.5c-0.2,2.5,0.4,4.7,1.9,6.4c1.6,1.8,4.1,2.8,6.8,2.8c5.9,0,11.9-4.6,11.9-12.4
				c0-3-1.7-12.5-22.9-13.6c5.4,1.2,8.5,4.2,8.5,8.4C299.9,52.6,297.4,56.1,293.8,57.5 M277.9,41.2c-17.4,2.2-32.7,11-32.7,27.7
				c0,13.8,14.4,19.5,27.1,24.6c10.5,4.2,19.6,7.8,19.6,15.2c0,5.7-5.6,9-11.8,10.6c21.8-3.6,33.1-16,33.1-28.1
				c0-15.1-14.3-20-27-24.4c-10.2-3.5-19-6.6-19-14.2C267.3,46.7,272,42.9,277.9,41.2 M250.9,91.2c-6.6,0-13.4,5.2-13.4,13.9
				c0,11.6,14.9,14.4,24.1,15c-5-1.2-7.4-4-7.4-8.6c0-4.6,2.8-8.6,7.1-10.2c0.3-2.7-0.4-5-2-6.7C257.4,92.5,254.3,91.2,250.9,91.2
				 M266.6,121.3c-7.1,0-30.1-1.2-30.1-16.2c0-9.3,7.3-14.9,14.4-14.9c3.7,0,7,1.3,9.1,3.7c1.8,2,2.6,4.7,2.2,7.8l0,0.3l-0.3,0.1
				c-4,1.4-6.7,5.2-6.7,9.4c0,3.5,1.3,8.3,12.9,8.3c5.3,0,10.9-0.9,15-2.5c3.6-1.4,8-4,8-8.7c0-6.7-8.8-10.2-19-14.3
				c-13-5.2-27.7-11-27.7-25.5c0-20.2,21.5-29.3,42.9-29.3c4.1,0,12,0.4,18.4,2.9c6.5,2.5,9.8,6.5,9.8,11.8
				c0,7.5-5.7,13.4-12.9,13.4c-3,0-5.8-1.1-7.5-3.1c-1.7-1.9-2.4-4.5-2.1-7.5l0-0.3l0.3-0.1c2.8-1,5.8-3.8,5.8-7.6
				c0-4.9-5.1-8-13.3-8c-8.6,0-17.3,3.9-17.3,11.3c0,6.9,8.5,9.8,18.3,13.3c12.9,4.5,27.6,9.6,27.6,25.4c0,9.4-5.4,17.2-15.5,22.8
				C290.2,118.6,278.4,121.3,266.6,121.3"/>
			<path id="Fill-22" class="st0" d="M381.3,87.1c-2.1,12.9-4.2,31.1,2.8,32.3l-0.3,0.3c-3.6,0.7-7.3,1.1-10.9,1.1
				c-12.4,0-22.7-5.4-19.8-24.2l8.6-55.1h-6.4l0.1-0.4h2c21.5-0.2,31.2-5,35.6-28.5h0.5l-4.7,28.5h10.3l-0.1,0.4h-10.3L381.3,87.1z"
				/>
			<path id="Fill-24" class="st0" d="M362.2,41.5l0,0.1l-8.6,55.1c-1.2,7.9-0.1,13.9,3.2,17.9c3.3,3.8,8.7,5.7,16,5.7
				c2.9,0,6.2-0.3,9.7-0.9c-5.8-3.2-3.9-19.8-1.9-32.4l7.5-46l3.4-20.5C386.8,36.5,377.7,40.8,362.2,41.5 M372.9,121.4
				c-7.7,0-13.3-2-16.8-6.1c-3.6-4.2-4.7-10.5-3.5-18.7l8.5-54.5h-6.4l0.2-1.4h2.4c20.7-0.1,30.7-4.2,35.1-28l0.1-0.4h1.5l-4.7,28.5
				h10.3l-0.2,1.4h-10.3l-7.3,45.1c-3.3,20.2-2.5,30.9,2.4,31.8l1,0.2l-1.1,1.1l-0.2,0C379.9,121,376.2,121.4,372.9,121.4"/>
			<path id="Fill-26" class="st0" d="M421.8,100.9c0,6.1,2,12.7,5.9,12.7c9.1,0,19-23.4,22.9-45.4l1.6-9.1c1.4-7.8,2.3-18-5.6-18
				C431.9,41,421.8,76.9,421.8,100.9z M473,87.1c-2.2,12.9-4.9,32.6,2.8,32.3l-0.2,0.3c-3.4,0.7-7,1-10.6,1
				c-12.7,0-23.7-5.3-19.5-24.1l5.2-23.1l-0.3-0.1c-9.4,37.3-21,47.3-34.4,47.3c-15.7,0-21.3-13.9-21.3-27.7c0-23.8,22.2-53,47.4-53
				c12,0,22,6.6,29.6,6.6c3.7,0,6.7-1.5,9.2-6L473,87.1z"/>
			<path id="Fill-28" class="st0" d="M446.6,41.5c-14.1,0-24.4,35.5-24.4,59.4c0,5.9,1.9,12.2,5.4,12.2c8.7,0,18.6-23.2,22.4-45
				l1.6-9.1c0.9-5.2,1.9-12.4-0.9-15.7C449.9,42.1,448.5,41.5,446.6,41.5 M442,40.6c-11.4,0-23.4,6.3-32.8,17.4
				c-8.9,10.5-14.1,23.6-14.1,35.1c0,25.2,15.9,27.2,20.8,27.2c8.1,0,14.8-3.9,20.5-12.3c-2.8,3.8-5.8,6-8.7,6
				c-4.2,0-6.4-6.6-6.4-13.2c0-23,9.2-57.2,23.4-60.2C443.8,40.6,442.9,40.6,442,40.6 M450.2,72.9l1.1,0.3l-5.3,23.6
				c-1.7,7.6-1,13.5,2.1,17.4c3.2,4,8.9,6.1,16.9,6.1c3.2,0,6.2-0.2,8.9-0.7c-0.5-0.2-1-0.6-1.4-1.1c-4.1-4.7-1.9-20.2,0-31.5
				l7.5-44c-2.1,2.8-4.8,4.2-8.3,4.2c-3.5,0-7.3-1.3-11.7-2.8c-2.9-1-6.1-2.1-9.5-2.8c0.4,0.3,0.8,0.6,1.1,1
				c3,3.6,2.1,11.2,1.1,16.5l-1.6,9.1C450.8,69.8,450.5,71.4,450.2,72.9 M464.9,121.3c-8.3,0-14.2-2.2-17.6-6.4
				c-3.3-4.2-4.1-10.3-2.3-18.3l2.4-10.5c-7.8,24.5-17.5,35.2-31.4,35.2c-7.4,0-13.1-3-16.9-8.9c-4-6.2-4.8-13.9-4.8-19.3
				c0-11.8,5.4-25.1,14.4-35.8c9.6-11.3,21.8-17.8,33.5-17.8c6.7,0,12.9,2.1,18.3,3.9c4.3,1.5,8.1,2.7,11.4,2.7
				c3.9,0,6.6-1.8,8.8-5.7l1.4-2.6l-8.4,49.4c-1.1,6.4-4.5,25.8-0.3,30.6c0.7,0.8,1.5,1.2,2.5,1.1l1,0l-1,1.3l-0.2,0
				C472.4,120.9,468.8,121.3,464.9,121.3"/>
			<path id="Fill-30" class="st0" d="M513.5,87.9c-1.6,10.5-6.1,29.9-0.3,31.6l-0.3,0.3c-3.4,0.7-7,1.2-10.3,1.2
				c-11.1,0-20.4-5-17.4-23.5L499,11.6c0.7-4.3-1.5-6-6.4-4.1l-0.2-0.2c5.2-2.5,15.7-5.8,22.9-5.8c8.5,0,11.5,3.1,9.9,13.3
				L513.5,87.9z"/>
			<path id="Fill-32" class="st0" d="M496.1,6.3c0.9,0,1.7,0.3,2.3,0.7c1.1,0.9,1.5,2.5,1.1,4.7l-13.8,85.8
				c-1.3,8-0.3,14.1,2.9,17.9c2.9,3.4,7.6,5.1,14,5.1c2.7,0,5.8-0.3,9.5-1c-4-3.1-1.7-16,0.1-26.6c0.3-1.8,0.6-3.6,0.9-5.1v0
				l11.7-73.1c0.8-5.1,0.5-8.4-1.2-10.3c-1.5-1.7-4-2.5-8.2-2.5C509.5,2,501.5,4.2,496.1,6.3 M502.6,121.5c-6.7,0-11.7-1.8-14.7-5.4
				c-3.4-4-4.5-10.3-3.1-18.7l13.8-85.8c0.2-1.3,0.2-3-0.8-3.8c-0.9-0.7-2.6-0.7-4.9,0.2l-0.3,0.1l-1-1l0.6-0.3
				c4.9-2.4,15.6-5.9,23.1-5.9c4.5,0,7.3,0.9,9,2.8c1.8,2.1,2.3,5.7,1.4,11.1L514,87.9c-0.2,1.5-0.5,3.3-0.9,5.1
				c-1.7,9.8-4.3,24.6,0.2,25.9l0.8,0.2l-1,1l-0.1,0C509,121.1,505.6,121.5,502.6,121.5"/>
			<path id="Fill-34" class="st0" d="M659.2,153.7c0-4-7.7-6.4-14.8-6.4c-6.7,0-13.9,2.2-21.8,5.1c4.7,6.1,10.5,10.1,17.8,10.1
				C648.2,162.5,659.2,158.7,659.2,153.7 M609.4,54c0,19-34.9,22.3-50.6,26.4v0.1l-0.1-0.2c13.3-3.4,24.2-13.3,24.2-26.9
				c0-4-1.6-6.8-4.6-6.8c-7.6,0-18.2,17.5-24.3,41.1c-2.5,9.8-6.6,29.7-1.2,31.7l-0.3,0.3c-4.8,0.7-9,1.2-12.8,1.2
				c-11.6,0-16.8-4.9-13.7-23.5L540,11.6c0.7-4.3-1.5-6-6.4-4.1l-0.2-0.2c5.2-2.5,15.3-5.8,23.3-5.8c8.5,0,11.6,3.8,9.8,13.3
				L553,87.3l0.5,0.2c10.1-38.3,24.1-47.3,38.5-47.3C604.4,40.1,609.4,46.8,609.4,54 M622.3,152.1c7.5-2.8,14.5-5.3,22.2-5.3
				c8,0,15.2,2.7,15.2,7c0,4.6-9.3,9.3-20.3,9.3c-11.8,0-21.4-2.2-29.5-5.6c-13.9,5.4-30.2,10.9-50.2,10.9c-37,0-74.8-19.1-102-19.1
				c-6.4,0-10.8,1.6-14.8,6.4l-0.3-0.1c11.1-21.9,29-29.2,43.5-29.2c32.9,0,55.6,34.6,98.8,34.6c9.1,0,16.8-1.7,23.9-4
				c-22.1-10-31.7-30.5-37.7-46.3c-5.2-13.8-5.4-30.2-12.4-30.2v-0.1c22.2-1.8,31-0.5,42.1,24C607.3,118.4,612.8,139.5,622.3,152.1"
				/>
			<path id="Fill-36" class="st0" d="M578.3,46.1c3.1,0,5.1,2.8,5.1,7.3c0,11.8-8.1,20.4-17.6,24.9c0.8-0.2,1.5-0.3,2.3-0.5
				c17.2-3.5,40.8-8.4,40.8-23.8c0-3.2-1.2-13.4-16.9-13.4c-8.7,0-15.5,3.7-20.9,9.5C573.6,47.5,576,46.1,578.3,46.1z M537.2,6.3
				c0.9,0,1.7,0.3,2.3,0.7c1.1,0.9,1.5,2.5,1.1,4.7l-14.1,85.8c-1.6,9.7-1,15.8,1.9,19.2c2.2,2.5,5.8,3.7,11.3,3.7
				c3.7,0,7.8-0.5,12-1.1c-4.8-4.2-0.1-24.5,1.7-31.4l-1-0.3l13.6-72.9c0.9-4.8,0.5-8.1-1.1-10c-1.5-1.8-4.2-2.7-8.2-2.7
				C550.3,2,542.5,4.2,537.2,6.3z M623.4,152.6c5,6.3,10.6,9.4,17,9.4c8.1,0,18.3-3.9,18.3-8.3c0-3.6-7.4-5.9-14.3-5.9
				C637.6,147.8,630.3,150.1,623.4,152.6z M610,156.9l0.2,0.1c7.7,3.3,16.3,5.1,25.6,5.5c-5-1.2-9.4-4.4-13.5-9.8l0,0l-0.1,0
				l-0.2-0.3c-6.4-8.5-10.9-20.5-15.3-32.2c-2.1-5.7-4.1-11-6.2-15.7c-10.5-23-18.9-25.3-39.1-23.9c3.1,2,4.6,8.1,6.3,15.3
				c1.1,4.5,2.3,9.7,4.1,14.4c11.8,31.1,26.2,41,37.5,46.1L610,156.9L610,156.9z M457.8,148.8c12.6,0,27.6,4.1,43.4,8.5
				c19,5.2,38.7,10.6,58.5,10.6c18.4,0,33.6-4.7,46.4-9.5c-5.3,1.5-12.5,3.1-21.2,3.1c-23.2,0-40.2-9.7-56.6-19.1
				c-13.9-8-27-15.5-42.2-15.5c-8.3,0-28.5,2.6-41.8,26.6C447.9,150.1,451.9,148.8,457.8,148.8z M559.8,168.9
				c-20,0-40.6-5.7-58.8-10.7c-15.8-4.3-30.7-8.4-43.2-8.4c-6.7,0-10.7,1.8-14.4,6.3l-0.3,0.3l-1.1-0.6l0.2-0.4
				c13.5-26.6,35.2-29.5,43.9-29.5c15.4,0,28.7,7.6,42.7,15.6c16.3,9.3,33.2,19,56.1,19c9.4,0,17.2-1.9,22.5-3.6
				c-20.9-10.1-30.7-29.9-36.8-46.1c-1.8-4.8-3.1-10-4.1-14.5c-1.9-8.2-3.5-14.8-7.3-15.3v1.5l-0.8-1.5h-0.2l0-0.4L558,80l0.6-0.2
				c11.8-3,23.8-12.3,23.8-26.4c0-4-1.5-6.3-4.1-6.3c-7.4,0-17.9,17.9-23.9,40.7c-3.7,14.3-5.6,29.5-1.5,31.2l0.7,0.3l-1,1l-0.2,0
				c-4.5,0.6-8.9,1.2-12.9,1.2c-5.9,0-9.7-1.3-12.1-4.1c-3.1-3.7-3.8-10-2.1-20l14.1-85.8c0.2-1.3,0.2-3-0.8-3.8
				c-0.9-0.7-2.6-0.7-4.9,0.2l-0.3,0.1l-1-1l0.6-0.3c4.9-2.4,15.3-5.9,23.5-5.9c4.3,0,7.3,1,9,3c1.8,2.2,2.3,5.8,1.3,10.9
				l-12.4,66.6c8.6-28.9,20.2-41.9,37.3-41.9c13.2,0,17.9,7.5,17.9,14.4c0,16.2-24,21.1-41.6,24.8c-1.1,0.2-2.2,0.4-3.2,0.7
				c18-0.9,26.2,2.6,36.2,24.7c2.1,4.7,4.1,10,6.3,15.7c4.3,11.5,8.7,23.3,14.9,31.7c7.6-2.9,14.5-5.2,22.1-5.2
				c7.8,0,15.7,2.6,15.7,7.5c0,5.1-9.9,9.8-20.8,9.8c-10.8,0-20.7-1.9-29.5-5.6C596.3,163.2,580,168.9,559.8,168.9z"/>
			<path id="Fill-38" class="st0" d="M643,104c0,8.5-7.3,16.8-16.4,16.8c-7,0-11.8-5.2-11.8-12.1c0-8.4,7.3-16.6,16.4-16.6
				C638,92.1,643,97.2,643,104"/>
			<path id="Fill-40" class="st0" d="M631.2,92.6c-8.5,0-15.9,7.5-15.9,16.1c0,6.7,4.8,11.6,11.3,11.6c8.3,0,15.9-7.8,15.9-16.3
				C642.5,97.4,637.7,92.6,631.2,92.6 M626.6,121.3c-7.1,0-12.3-5.3-12.3-12.6c0-9.1,7.9-17.1,16.9-17.1c7,0,12.3,5.4,12.3,12.5
				C643.5,113.2,635.6,121.3,626.6,121.3"/>
		</g>
	</g>
</g>
</svg>
