<svg id="Layer_1" data-name="Layer 1" xmlns="http://www.w3.org/2000/svg" viewBox="0 0 708 189"><defs><style>.cls-1{fill:#202020;}</style></defs><path class="cls-1" d="M66.91,40.31a98.6,98.6,0,0,1,19.34-2.72c-12.9-2.24-25.67-12.53-36.33-12.53-4.46,0-7.81,1.74-7.81,7.19a8,8,0,0,0,4.59,6.82C45.08,46.88,39,50.48,33.18,50.48c-6.07,0-10.66-4.22-10.66-10.91,0-11.9,12.27-16.37,23.18-16.37,16,0,30.88,13.89,45.63,13.89,3,0,4.34-1.86,4.34-3.72,0-2.23-1.86-4.46-5.2-3.22-2.48-4.59,1.11-7.69,5-7.69a5.65,5.65,0,0,1,5.95,5.95,10.29,10.29,0,0,1-7.57,9.3l12,53.94,30-55.43h37.69l-.12.87c-12.9,0-13.89,6.45-16.25,21.45l-6.69,42.16c-2.36,14.51-3.47,21.45,9.42,21.45l-.12.87H110.3l.13-.87c11.65,0,12.65-4.71,15.25-21.45l9.67-60.88L88.11,127.23,67.9,41.8,60.83,86.19c-2.6,16.24-5.58,36,13,36l-.12.87H34.17l.13-.87c19.09,0,22.69-20.71,25.54-38.32Z"/><path class="cls-1" d="M213.34,109.87c-4.71,8.68-15.5,14-24.55,14-9.43,0-17.36-5.33-15.25-18.22l4.58-28.89c.62-4.09,2.36-12-3.22-12-1.61,0-3.84,1.24-6.08,2.85l-.37-.62c6.33-4.83,15.25-9.42,23.81-9.42,6.94,0,10.41,4.21,8.93,13.64l-5,31.24c-.75,5.09-2.24,15.25,6.07,15.25,5,0,10.91-7.43,11.66-12l7.31-46.5a113,113,0,0,0,22.45-1.24l-10.17,64.23c-2.61,17-15.5,27.77-39.18,27.77-9.06,0-23.69-1.24-23.69-12.64,0-6.7,5.34-11.54,12.15-11.54,4.84,0,9.8,3.1,9.06,9.55-3.72,1.24-5.83,4.09-5.83,7.32s2.48,6.2,8.68,6.2c10.29,0,13.39-5.71,14.75-14.51Z"/><path class="cls-1" d="M352.33,71.93l-8.68-34.84h-8.56l.13-.87H381l-.13.87h-9.67l14.14,57.28L419.9,37.09H402.42l.12-.87H434l-.13.87H421.27l-54.56,90.14-14-53.56-34.1,53.56L293.55,37.09h-9.3l.13-.87h46.37l-.12.87h-9.18L337,95.86Z"/><path class="cls-1" d="M482.64,85c0,20.58-18.6,38.93-40.67,38.93-17.73,0-30-11.65-30-28,0-21.2,18.23-38.81,40.55-38.81C470.24,57.05,482.64,68.58,482.64,85Zm-22.82-14c0-7.32-1.61-12.9-7.44-12.9-13.63,0-17.73,39.19-17.73,52.08,0,7.32,1.74,12.77,7.44,12.77C455.86,121.16,459.82,85.57,459.82,70.94Z"/><path class="cls-1" d="M517.6,81.48l-6.45,41.16a113.7,113.7,0,0,0-22.44,1.24L496,76.77c.62-4.09,2.35-12-3.23-12-1.61,0-3.84,1.24-6.07,2.85l-.37-.62c6.32-4.83,15.25-9.42,23.8-9.42,6.95,0,11.29,4.21,9.3,13.64l-1.61,7.93c3.84-9.42,10.79-22.07,22.69-22.07,10.54,0,15.13,6.57,15.13,13.64,0,7.94-5.95,16.37-16,16.37-5.33,0-9.79-3.35-9-10.42,5-1.11,7.69-6.2,7.69-10.54,0-3-1.24-5.95-4.09-5.95C528.51,60.15,520.45,73.42,517.6,81.48Z"/><path class="cls-1" d="M634.4,57.92l-.12.87c-11.29,0-27.16,11.28-38.56,20.58l-7.44,6.08c6.94-3.1,12.64-4.22,17.11-4.22,31.37,0,20.33,76.5,51.33,76.5,5,0,8.93-4.34,8.93-9.91a6.81,6.81,0,0,0-4.34-6.58c1.61-7.81,7.44-11.4,13.51-11.4,5.71,0,10.67,3.47,10.67,10.29,0,14.75-17.36,18.72-30.26,18.72-62.24,0-49.6-72.54-65.09-72.54a8.45,8.45,0,0,0-4,1.12l-5.58,35.21a113.62,113.62,0,0,0-22.44,1.24l12.39-79.72c.63-4.09,2.36-12-3.22-12-1.61,0-3.84,1.24-6.07,2.85l-.38-.62c6.33-4.83,15.25-9.42,23.81-9.42,6.94,0,10.91,4.09,9.3,13.64l-7.56,47,8.43-7.07c7.69-6.44,20.21-19.71,9-19.71l.12-.87Z"/></svg>