<svg id="Layer_1" data-name="Layer 1" xmlns="http://www.w3.org/2000/svg" viewBox="0 0 708 768"><defs><style>.cls-1{fill:#f6a800;}</style></defs><g id="el_09fYFk_dvK" data-name="el 09fYFk dvK"><path class="cls-1" d="M635,677H296.14a167,167,0,0,1-111.46-45.23L182,629.12c-7.29-7.28-18.4-11.63-29.7-11.63h-86V601h86c15.82,0,30.91,6,41.39,16.47l2.47,2.48a150.28,150.28,0,0,0,100.13,40.56H635a31.41,31.41,0,0,0,0-62.81H411V581.13h71.08a31.08,31.08,0,0,0,31.41-31.41,31.44,31.44,0,0,0-31.41-31.41h-56.2V501.78H503.6A31.08,31.08,0,0,0,535,470.37,31.44,31.44,0,0,0,503.6,439H440.78V422.43h71.08a31.41,31.41,0,1,0,0-62.81H407.72a39.72,39.72,0,0,1-39.67-39.68V301.76a96.24,96.24,0,0,1,15.38-52.43q3.72-5.67,7.54-11.31c11.64-17.28,23.69-35.16,29.48-55.11,4.94-17.29-1.71-47.06-14.24-63.68-4-5.34-10.47-11.7-18.33-11.7-11.1,0-12,1-13.35,8.14a148.39,148.39,0,0,0-1.88,15.91c-1.06,12.77-2.16,26-9.91,38.88-7.17,11.94-19.09,22.42-35.43,31.14-18.64,10.88-33.93,26.17-50.12,42.36A482.74,482.74,0,0,0,221,309.09c-16.53,22.38-37.79,40.37-46.16,47.07a57.1,57.1,0,0,1-34.92,12.55H25.05V352.18H139.93a40.16,40.16,0,0,0,24.59-8.94c7.87-6.28,27.82-23.16,43.14-43.91a499.85,499.85,0,0,1,58-67.18c16.85-16.84,32.88-32.87,53.63-45Q340.16,176,348.57,162c5.77-9.62,6.66-20.37,7.6-31.74a167.12,167.12,0,0,1,2.11-17.63C362,92.67,375.52,91,387.88,91c11.6,0,22.51,6.32,31.52,18.27,15.71,20.83,23.31,55.92,16.94,78.22-6.53,22.47-19.3,41.43-31.66,59.77-2.5,3.71-5,7.39-7.39,11.08a79.66,79.66,0,0,0-12.71,43.42v18.18a23.17,23.17,0,0,0,23.14,23.15H511.86a47.93,47.93,0,0,1,22.3,90.37,47.86,47.86,0,0,1,17.38,36.91,47.34,47.34,0,0,1-34.83,46.19,48.34,48.34,0,0,1,1.9,64.57H635A47.94,47.94,0,0,1,635,677Z"/></g></svg>