<?xml version="1.0" encoding="utf-8"?>
<svg version="1.1" id="el_Wp1_5UtsO" xmlns="http://www.w3.org/2000/svg" x="0" y="0" viewBox="0 0 107 96" xml:space="preserve"><style>@-webkit-keyframes kf_el_09fYFk_dvK_an_Mmubif6gO{0%,33.33%,50%,83.33%,to{-webkit-transform:translate(53.50001525878906px,48.149993896484375px) rotate(0deg) translate(-53.50001525878906px,-48.149993896484375px);transform:translate(53.50001525878906px,48.149993896484375px) rotate(0deg) translate(-53.50001525878906px,-48.149993896484375px)}5.56%,55.56%{-webkit-transform:translate(53.50001525878906px,48.149993896484375px) rotate(5deg) translate(-53.50001525878906px,-48.149993896484375px);transform:translate(53.50001525878906px,48.149993896484375px) rotate(5deg) translate(-53.50001525878906px,-48.149993896484375px)}11.11%,61.11%{-webkit-transform:translate(53.50001525878906px,48.149993896484375px) rotate(-5deg) translate(-53.50001525878906px,-48.149993896484375px);transform:translate(53.50001525878906px,48.149993896484375px) rotate(-5deg) translate(-53.50001525878906px,-48.149993896484375px)}16.67%,27.78%,66.67%,77.78%{-webkit-transform:translate(53.50001525878906px,48.149993896484375px) rotate(3deg) translate(-53.50001525878906px,-48.149993896484375px);transform:translate(53.50001525878906px,48.149993896484375px) rotate(3deg) translate(-53.50001525878906px,-48.149993896484375px)}22.22%,72.22%{-webkit-transform:translate(53.50001525878906px,48.149993896484375px) rotate(-3deg) translate(-53.50001525878906px,-48.149993896484375px);transform:translate(53.50001525878906px,48.149993896484375px) rotate(-3deg) translate(-53.50001525878906px,-48.149993896484375px)}}@keyframes kf_el_09fYFk_dvK_an_Mmubif6gO{0%,33.33%,50%,83.33%,to{-webkit-transform:translate(53.50001525878906px,48.149993896484375px) rotate(0deg) translate(-53.50001525878906px,-48.149993896484375px);transform:translate(53.50001525878906px,48.149993896484375px) rotate(0deg) translate(-53.50001525878906px,-48.149993896484375px)}5.56%,55.56%{-webkit-transform:translate(53.50001525878906px,48.149993896484375px) rotate(5deg) translate(-53.50001525878906px,-48.149993896484375px);transform:translate(53.50001525878906px,48.149993896484375px) rotate(5deg) translate(-53.50001525878906px,-48.149993896484375px)}11.11%,61.11%{-webkit-transform:translate(53.50001525878906px,48.149993896484375px) rotate(-5deg) translate(-53.50001525878906px,-48.149993896484375px);transform:translate(53.50001525878906px,48.149993896484375px) rotate(-5deg) translate(-53.50001525878906px,-48.149993896484375px)}16.67%,27.78%,66.67%,77.78%{-webkit-transform:translate(53.50001525878906px,48.149993896484375px) rotate(3deg) translate(-53.50001525878906px,-48.149993896484375px);transform:translate(53.50001525878906px,48.149993896484375px) rotate(3deg) translate(-53.50001525878906px,-48.149993896484375px)}22.22%,72.22%{-webkit-transform:translate(53.50001525878906px,48.149993896484375px) rotate(-3deg) translate(-53.50001525878906px,-48.149993896484375px);transform:translate(53.50001525878906px,48.149993896484375px) rotate(-3deg) translate(-53.50001525878906px,-48.149993896484375px)}}#el_Wp1_5UtsO *{-webkit-animation-duration:3s;animation-duration:3s;-webkit-animation-iteration-count:infinite;animation-iteration-count:infinite;-webkit-animation-timing-function:cubic-bezier(0,0,1,1);animation-timing-function:cubic-bezier(0,0,1,1)}</style><g data-animator-group="true" data-animator-type="1" style="-webkit-animation-fill-mode:backwards;animation-fill-mode:backwards;-webkit-transform:translate(53.50001525878906px,48.149993896484375px) rotate(0deg) translate(-53.50001525878906px,-48.149993896484375px);-webkit-animation-name:kf_el_09fYFk_dvK_an_Mmubif6gO;animation-name:kf_el_09fYFk_dvK_an_Mmubif6gO;-webkit-animation-timing-function:cubic-bezier(.42,0,.58,1);animation-timing-function:cubic-bezier(.42,0,.58,1)"><g style="-webkit-transform:translate(-918px,-195px)" id="el_09fYFk_dvK"><g style="-webkit-transform:translate(918px,196px)" fill="none" stroke="#e0422c" stroke-width="2"><path d="M62.7 63.4h6.8c2.6 0 4.8 2.1 4.8 4.8S72.2 73 69.5 73h-8.6M65.3 53.8h6.8c2.6 0 4.8 2.1 4.8 4.8s-2.1 4.8-4.8 4.8h-8.6M64.5 53.8h8.6c2.6 0 4.8-2.1 4.8-4.8 0-2.6-2.1-4.8-4.8-4.8H60.5c-2.1 0-3.8-1.7-3.8-3.8v-2.2c0-2.1.6-4.1 1.7-5.8 1.7-2.6 3.7-5.2 4.6-8.3 1-3.5-1.3-10.4-4.9-10.4-1.5 0-2.3.2-2.6 1.8-.4 2.1-.1 4.3-1.3 6.3-.9 1.5-2.4 2.6-3.9 3.4-2.4 1.4-4.3 3.3-6.3 5.3-2.5 2.4-4.8 5.1-6.9 8-1.7 2.3-3.9 4.3-5.4 5.5-1 .8-2.3 1.3-3.6 1.3H14.2M19.2 75.4h10.4c1.6 0 3.2.6 4.3 1.7l.3.3c3.5 3.3 8.1 5.1 12.8 5.2h41c2.7 0 4.8-2.2 4.8-4.8 0-2.7-2.2-4.8-4.8-4.8H60.9"/></g></g></g></svg>
