<svg id="Layer_1" data-name="Layer 1" xmlns="http://www.w3.org/2000/svg" xmlns:xlink="http://www.w3.org/1999/xlink" viewBox="0 0 708 768"><defs><style>.cls-1{fill:none;}.cls-2{fill:#09553f;}.cls-3{clip-path:url(#clip-path);}.cls-4{fill:#fdfbf5;}.cls-5{fill:#074e67;}.cls-6{fill:#960248;}.cls-7{fill:#f6a800;}</style><clipPath id="clip-path"><circle class="cls-1" cx="354" cy="384" r="284.32"/></clipPath></defs><g id="Layer_1-2" data-name="Layer 1-2"><circle class="cls-2" cx="354" cy="384" r="284.32"/><g class="cls-3"><path class="cls-4" d="M95.27,460.41,99.18,443l4.26-11.38L118.73,405l17.41-17.77,40.52-35.54h0l6-8.18a1.23,1.23,0,0,0,.35-.71h0L186.61,330v-.36l.35-13.15h0l-2.84-21.68,1.42-19.19,6-16.34,18.48-32v-.36h0l5.33-16h0v-.35l1.07-12.8h0l-2.84-61.48-3.56,2.13,3.2,58.28-1.06,12.44-5,15.64-18.13,32h0l-6.39,17.06v.71l-1.42,19.54h0l2.84,21.68-.71,12.8-3.56,13.15-5.68,7.82-40.52,35.18h0l-17.77,17.77h0v.36l-16,27h0l-4.62,12.08h0L91.36,459.7h0l-2.49,27.37c1.07,2.48,1.78,5,2.85,7.46Z"/><path class="cls-4" d="M477.32,548.91l-9.24,15.28L418,611.81l-15.64,10L366.79,631h0L338,640.6h0l-6.76,3.55h-.35L316,658a.35.35,0,0,1-.35.36l-.36.35-3.55,7.11,3.91.36,2.84-5.69,14.22-12.79,6.39-3.2,28.79-9.6,35.54-9.24h.36l16-9.95h0l50.47-47.62a.35.35,0,0,1,.35-.36h0l9.24-15.64v-.35h0l3.56-13.51h0l.71-13.5h0L483,510.88h0l-8.17-34.83h0l-14.58-35.54h0l-37.67-81.39L420.81,352l.36-13.15,2.13-6.39,6-10.66L454.58,288v-.35h0l6-13.15h0l7.11-22.75v-.71l.71-12.44h0l-2.13-25.59h0l-11.73-71.43-2.85-24.17L448.18,116,451,142h0l11.73,71.08,2.13,25.59-.71,12.09-7.1,22.39-5.69,12.79-25.23,33.76h0l-6,11h0l-2.48,7.11v14.57l1.77,7.46v.36h0l38.74,78.54,14.22,35.54,7.82,34.83,1.06,13.51-.71,13.15Z"/><path class="cls-5" d="M573.64,346h0l-9.95,21.33h0L560.13,379h0l-6.4,39.45h0v.71l5,21.33h0v.35a.35.35,0,0,0,.36.36h0l17,21h0L601,486.71l11.37,14.22,1.78-3.56-10.3-12.79h0L579,460.06l-17.06-20.62-5-20.61,6-38,3.56-11.37,9.59-21.33,35.9-65h0l3.91-8.89-2.13-4.26-5,11.73L573.64,346Z"/><path class="cls-4" d="M201.18,573.43l8.53-14.57,13.15-13.51,37.31-23.1,18.49-6.4,10.66-1.42,30.56,8.18h.36l13.86,1.77h.71l7.46-1.77h.36l12.08-6.05h.71l14.22-13.86a.34.34,0,0,1,.35-.35h0l5.33-9.24v-.36h0l3.91-13.15v-.35l.36-13.51v-.35l-8.18-35.54h0l-13.15-32h0l-19.9-32-3.91-9.24-5-19.9-.36-11,3.2-16.34,4.27-11.73,20.61-32h0l6-11.73v-.35h0L373.9,219.1h0l5.69-26.66h0l1.06-13.51h0V165.79h0l-2.48-22h0l-10.66-41.58h0v-.36L366.44,100h-3.91l1.42,3.19,10.31,39.45,2.49,21.68v12.8l-1.07,13.5L370,217.32l-10.66,34.47L354,263.16l-21,32h0l-4.26,12.08h0l-3.2,16.71v.71l.35,11.37v.36l5.33,20.25h0V357l3.56,9.6h0l19.9,32,13.15,32L376,465.39l-.35,13.15L371.77,491l-5,8.89-13.86,13.51-11.72,5.68-7.11,1.78L321,519.05,290,510.88h-.71l-11.38,1.42h0l-18.83,6.75h0l-37.67,23.46h0l-13.51,13.86v.35h0l-8.88,14.93v.71l-5.69,24.88h0l-2.49,19.9,3.56,2.49,1.77-21.32Z"/><path class="cls-5" d="M500.78,415.28h0v.35l9.6,25.23h0L544.14,502l19.55,43.36,6.39,23.1c1.07-1.06,1.78-2.13,2.85-3.2l-5.69-21h0l-19.55-43.35h0L513.93,439.8l-9.24-24.88-1.42-11.73.35-19.55L509,359.12l5-10.66L557.64,277h0l9.24-19.54v-.36h0l3.2-13.15h0l3.56-27h0V204.17c-1.07-1.42-2.49-2.84-3.56-4.27V217l-3.55,26.66-2.84,12.44-9.25,19.19-43.71,71.43h0l-5,10.67v.35h0l-5.34,24.88h0v.35l-.71,20.62h0Z"/><path class="cls-4" d="M87.81,429.14l13.5-30.21,14.57-17.77,39.45-36.61v-.35h0l6.4-9.25v-.35h0l2.49-6.75h0l1.77-7.11v-.36l.71-13.15h0l-2.13-35.54,1.42-13.5,15.29-32.7h0l4.26-15.28v-.36l1.07-12.79h0l-5.33-38.74-3.2,2.49,5.33,35.89-.36,12.09-4.26,14.93-15.28,33v.71l-1.43,13.86h0l2.14,35.54L163.15,320l-1.78,6.75-2.48,6.4-6,8.88L113.4,378.67h0L98.47,396.79v.72L84.61,428.07h0L78.21,453c.71,2.49,1.07,4.62,1.78,7.11Z"/><path class="cls-4" d="M177.72,575.2l3.2-13.15,6-12.79,9.6-12.79,8.53-8.53,21-17.42,16-11.37,18.48-10.31,12.79-6.75,16-5.69L306,475l12.44,1.78,8.53,5h0c.36,0,.36.36.71.36h12.79l.36-.36h.36l5.33-5,.35-.36h0l6.4-12.44h0v-.71h0l-1.78-34.83v-.35h0l-2.84-10.31h0l-8.18-19.54h0L322,362.68,314.2,336l-.72-11L316,304.75l3.91-10.67L343,256.77h0l8.53-18.48h0l6.75-23.1h0l7.47-38.74v-.36l-2.49-34.47h0l-7.11-28.08a1.81,1.81,0,1,0-3.55.71h0l1.06,3.2-1.77-4.26-3.56-13.51h-3.55L349,113.54h0l4.27,11a2,2,0,0,0,1.78,1.07,1.28,1.28,0,0,0,1.06-.36l4.27,16.35,2.13,34.12-7.46,38.38-6.76,23.1L340.14,255,317,292.31h0l-3.91,11v.36h0l-2.49,20.61h0l.71,11.38v.71l7.82,27h0v.35l18.48,35.54,7.47,18.13,2.84,9.95,1.78,34.47-6.05,12.44-4.62,4.27H328.41l-8.53-4.62h-.71L306,472.14h-.35l-17.06,1.42h-.71l-16.35,5.69h0L258.4,486h0l-18.48,10.31h0l-16,11.37h0l-21,17.41h0L194.07,534h0l-9.95,13.5h0l-6.4,13.15v.71l-3.2,13.51h0l-.71,13.5h0v14.93c1.07,1.07,2.49,1.78,3.56,2.84V588.35Z"/><path class="cls-4" d="M209,456.15l13.5-13.51,59.71-35.18h.35l4.63-5v-.35h0l3.55-6.4v-.36h0l1.78-6.75v-.71l-1.07-13.86h0l-7.82-34.83-3.2-24.17,1.07-21.68,9.24-20.61,23.1-31.63h0l5.33-10.31v-.35h0L326.28,206h0l6.4-39.81h0l.35-27.37v-.71l-3.91-17.77h0l-4.62-10.66h0l-5-7.82-3.91.36,5.68,8.88,4.27,10,3.91,17.42-.36,27.37-6,39.8-6.75,22.75-5,9.95-23.1,32h0l-9.59,21.33h0v.71l-1.07,22h0l3.2,24.52h0l7.82,34.83,1.06,13.86-1.77,6.05-3.2,6-4.27,4.62-59.7,35.18h0L206.86,453.3h0l-53.3,77.12v.36h0l-8.89,21.32v.71l-3.2,20.26a31.73,31.73,0,0,1,3.2,3.56l3.55-22.75,8.18-20.61Z"/><path class="cls-4" d="M76.79,374.4l12.08-23.1,18.48-24.16v-.36h0l7.47-16.7v-.71l1.06-6.76v-.71l-5.68-34.47.71-13.15,5-19.9h0l1.07-7.11c-1.42,2.49-3.2,4.62-4.62,7.11l-5,19.19h0l-.71,13.5h0l6,34.83-1.06,6.4-7.47,16.35L86,348.82h0L73.59,372.63h0L69.68,384A98.77,98.77,0,0,0,70,394.31Z"/><path class="cls-4" d="M91.36,382.58l10.31-14.93,28.07-27.72h0l9.6-13.5v-.36h0l5.33-13.15h0v-.71h0l-3.91-55.44,2.84-12.09L151.42,223h0l2.14-11.72h0V199.19h0L151.07,185l-2.85,3.2,2.14,10.66v11.73l-2.49,11-7.82,21.68h0l-2.84,12.8v.71l4.26,54.73-5,12.44-9.6,13.5L98.82,365.16h0L88.52,380.8h0L72.17,419.9c.35,2.84.71,5.33,1.06,7.81l2.14-6Z"/><path class="cls-5" d="M628,459.7l-10.3-15.28-2.85-12.09-2.49-38.73-.71-16,1.78-13.15L632.28,325a45.21,45.21,0,0,0-1.42-5.68l-21,44.07v.71l-1.78,13.5h0l.71,16.35h0l2.49,38.74h0l3.2,12.44c0,.35,0,.35.35.71h0l10.66,15.64h0l1.78,1.77c.36-1.42.71-2.84,1.07-3.91Z"/><path class="cls-4" d="M141.12,531.14,179.5,453l6.75-9.6,13.51-14.21,16-11.38L258,392.17c.36,0,.36-.35.71-.71h0l7.82-12.08V379h0l2.13-6.75v-.35l.72-13.51h0l-7.11-55.8,1.06-13.15,4.27-12.79,5.68-9.95L295,238.29h0l7.47-12.44h0l4.62-12.09h0v-.35l7.82-57.58h0V129.18l-6.76-17.06h0L304.24,104l-3.55.71L305,113.9l6.4,16.35v25.58l-7.82,56.87-4.26,11-7.46,12.43-21.68,28.44h0l-6.05,10.3h0L259.82,288v.36h0l-1.42,13.86V303l7.46,55.44-.71,12.8-2.13,6L255.2,389l-41.94,25.58h0l-16,11.38h0l-13.86,14.92h0l-7.11,9.95h0L137.92,529h0l-6.76,19.91h0l-1.42,8.17,2.85,3.55,2.13-11Z"/><path class="cls-4" d="M127.61,527.58,156,450.46l10.31-16.35,7.82-8.88,28.07-23.1,25.59-17.06h0l13.86-14.22.36-.36h0l4.62-9.95v-.71l1.78-19.54v-.71l-5.69-33.41v-9.6l2.49-13.5,7.11-14.57,22.39-31.28h0l12.79-20.61v-.36h0l5.69-19.9h0l3.2-27h0l.71-34.12v-.71l-6.4-21.32h0l-2.84-5.33-3.56.71,2.13,6,6.4,20.61L292.16,169l-2.84,26.66L284,215.19,271.9,234.73,249.51,266h0l-7.46,15.28V282l-2.84,14.22h0v9.95h0l5.68,33.41-1.77,19.54-4.27,9.6-13.5,13.86-25.24,16.7h0L172,422.38h0l-7.82,8.89h0L153.56,448v.36h0L125.12,525.8h0l-5,17.77c.71,1.07,1.77,2.49,2.49,3.56Z"/><path class="cls-5" d="M526.37,365.16l10.66-21,43.36-69.31v-.35h0l8.17-21.68h0l3.56-23.46c-1.07-1.42-1.78-2.84-2.85-4.26L585,252.5l-7.82,21.33-43,69.3h0l-10.66,21.32h0L520,376.18h0l-3.91,27v.36l1.78,21.32v.71l8.53,21.33h0l8.53,14.57h0L569,506.26,589.63,545a31.86,31.86,0,0,0,2.13-3.56l-19.9-37h0L538.1,460.06l-8.53-14.22L521,424.52l-2.49-19.91L522.46,378Z"/><path class="cls-4" d="M231,636l14.57-32.7L253.07,593l14.21-13.15L284,569.52l18.12-5,25.95-1.77h.35l23.1-4.62h0l17.42-7.47h0L381,542.86h0l19.19-16.35h0l7.47-9.24v-.35h0L418,498.44v-.36l2.85-12.44h0l.71-17.77v-.71l-5.69-21.32h0l-20.61-43.36h0l-26-38.74-6-11.37-3.91-16,.36-9.24,3.55-11,5.33-9.24,23.81-32h0l10.31-19.54h0l6.4-19.91h0l3.55-27h0l.36-20.61h0l-3.91-34.47h0l-5-31.63h0l-5.69-18.84-3.9-.36,6,20.26L406.24,153l3.91,34.47-.35,20.26-3.56,26.66-6.39,19.54-10.31,19.55L365.73,305.1h0L360,314.7h0l-3.55,11.37v.71l-.36,10v.36l3.91,16.7v.36h0l6,11.37h0L392,404.26l20.26,42.65L418,468.23l-.71,17.41-2.49,12.09-8.88,17.06-7.47,8.88-18.83,16-12.08,7.47-17.42,7.11-22.74,4.62-26,1.77h-.35L282.56,566h-.71l-17.06,10.31h0l-14.92,13.86h0l-7.82,10.66h0l-14.57,33.06h0l-1.07,3.55,3.2,1.78Z"/><path class="cls-4" d="M281.85,644.86l18.84-23.45L316.33,610l8.53-4.26,60.42-18.48h0l18.12-8.89h0L434,559.21h0l15.29-11.73h0l9.59-10.3a.35.35,0,0,1,.36-.36h0l4.62-10v-.71L466,513v-.36l-2.84-25.58h0l-3.2-13.86h0l-7.82-21.33h0l-15.64-32h0l-35.54-61.84-3.55-14.93,1.42-12.8,7.11-12.43L424,296.22h0l11-16.35h0l8.89-18.48h0V261l2.84-12.44h0l1.78-29.14h0l-1.43-13.86h0L434,111.41l-3.9-1.07,13.86,94.54,1.42,13.5-1.78,28.79-2.84,12.09-8.53,18.12-11,16-18.12,22h0l-7.47,12.79h0v.71h0l-1.42,13.51v.71l4.26,14.22h0v.35L434,419.54l15.64,32,7.82,21.32,3.2,13.5,2.84,25.24L461.33,524l-4.62,9.59-9.24,10L432.19,555.3,402,574.49l-17.77,8.89-60.42,18.48h0l-8.88,4.62h0L298.2,618.56v.36h0l-18.83,23.81h0l-7.11,13.86,3.55,1.07Z"/><path class="cls-4" d="M217.88,600.08l10-19.19,12.8-14.21,10.3-7.82,27-13.15,13.15-2.14,33.77,1.78h.35l13.51-1.42h.35l10.31-2.84h.36l12.43-6.4h0l10.31-7.46h0l9.6-8.89h0l7.46-10V508h0l8.17-17.77v-.71l2.14-13.15v-.71l-1.43-16V459l-12.79-39.81h0L374.26,395h0l-21-30.57-4.62-9.59-5-17.06V323.58l3.56-11.73,9.95-18.12L375,268.5v-.36h0l9.24-21.32h0l7.46-26.66h0l4.27-27h0l.35-13.5h0l-2.13-25.24h0l-3.91-24.52h0l-8.53-29.14-3.91-.36,8.89,29.86,3.91,23.1,2.13,24.87-.36,13.86-4.26,26.66-7.47,26.65-8.88,21L354,291.6h0l-9.95,18.12h0l-3.56,12.09v16l5,18.83h0V357l4.62,9.24h0l21,30.21L382.43,421l13.51,38.74L397,475.34l-2.13,12.79-8.17,17.42-7.47,9.59L370,524l-10.3,7.11-12.09,6.39-10,2.85L324.5,541.8,290.38,540H290l-13.51,2.49h-.71l-27.36,13.15h0l-10.67,8.17h0L224.63,578.4v.36h0l-10.3,19.55V599l-7.11,28.78,3.2,1.78Z"/><path class="cls-5" d="M599.58,509.1h0l-13.5-18.48h0l-31.64-32.7-10.3-15.28-5-10.66-3.91-17.77v-6.4l8.89-36.25,10-21.32,38.74-64.33h0l8.53-17.77h0L605.62,255h0l.36-1.78a39,39,0,0,0-2.85-5.33l-1.06,6-3.91,12.44-8.53,17.42-38.74,64.68h0l-10.31,21.68h0l-8.88,37v7.82L536,433.05v.35h0l5,10.66h0L551.6,459.7h0l31.63,32.7,13.51,18.48,6.39,10,1.78-3.56Z"/><path class="cls-5" d="M518.19,218.38l-1.77,27-4.62,12.8-21,45.85-21.68,38.73v.71l-3.91,15.29v.71l2.13,25.59h0l6.4,25.94h0l34.12,87.43,10.66,34.83,3.55,21-.71,13.15-3.55,12.08L492.61,624.6h0L488,635.27l5-2.85L495.8,626l25.59-45.14v-.35h0l3.91-12.8V567l.71-13.5v-.72l-3.55-21.32h0L511.8,496.66h0l-34.12-87.43-6-25.59-2.14-25.23,3.91-14.93,21.33-38.73h0l21.32-45.85h0l5-13.15v-.36L522.81,218v-.36l-6.39-34.83h0l-16.71-43c-1.42-1.07-3.2-1.78-4.62-2.84l16.71,46.91Z"/><path class="cls-5" d="M478,169.34h0l10.67,53.31,1.42,13.5-1.07,13.15-7.82,26.3-10.3,20.62L446.4,333.53h0l-3.19,6.4v.36l-2.49,13.5v.71h0l2.84,13.86h0l5.33,14.57h0L485.5,475l11.73,41.94,3.91,26.65-1.43,14.58-3.55,11-5,8.89L440.72,641l-23.46,19.19-2.84,1.43c3.2-.71,6-1.43,9.24-2.14l19.9-16.34h0l50.82-63.27h0l5.33-9.24v-.35h0l3.56-11.37h0v-.36l1.42-14.22v-.35l-3.91-27h0l-11-43h0l-36.6-92.41-5.33-14.57L445,353.44l2.49-12.8,2.84-6.4,23.81-37.31h0l10.67-21v-.36h0L492.61,249h0l1.06-13.51h0l-1.42-13.86h0l-10.66-53.31h0l-8.53-44.07-3.91-1.77Z"/><path class="cls-4" d="M126.9,474.63l9.95-30.92,14.22-20.62,26.3-24.87,32.69-24.17h0l11.73-12.8.36-.35h0l5-13.15v-.36l.71-6.75h0v-6.4h0l-5.33-27.72,1.42-19.9,5.34-12.79,34.82-53v-.35h0l6.76-17.42h0l3.91-14.92h0l1.06-12.8h0l-.35-23.46v-.71L264.79,113.9l-3.19,1.42,9.95,36.25.35,23.1-1.06,12.79L267.28,202l-6.75,17.05-34.83,53h0l-5,12.44v.71l-1.43,20.26v.71L225,333.89v6.4l-.71,6.39L219,359.12l-11.37,12.44-32.7,24.17h0L148.22,421h0l-14.57,21a.35.35,0,0,1-.35.36L123,473.21h0l-13.15,56.5c.71,1.43,1.78,2.85,2.49,4.27Z"/></g><path class="cls-6" d="M354,99.68c157.09,0,284.32,127.23,284.32,284.32S511.09,668.32,354,668.32"/><path class="cls-7" d="M365.73,615.36v-3.55l3.55-.35.36,3.55Zm17.77-1.77-.36-3.56,3.56-.35.35,3.55Zm17.77-2.85-.71-3.55,3.55-.71.71,3.55Zm17.41-4.26-1.06-3.55,3.55-1.07,1.07,3.55Zm17.06-5.69-1.06-3.2,3.19-1.42,1.43,3.2ZM452.09,594l-1.42-3.2,3.2-1.42,1.42,3.2Zm16-8.17-1.77-3.2,3.19-1.78,1.78,3.2Zm15.29-9.6-2.14-2.84,2.85-2.13,2.13,2.84Zm14.57-10.66-2.14-2.84,2.85-2.14,2.13,2.85Zm13.5-11.37L509,551.75l2.49-2.49,2.49,2.49Zm12.8-12.8L521.75,539l2.49-2.48,2.48,2.48ZM536,527.94l-2.84-2.14,2.13-2.84,2.85,2.13Zm10.67-14.22-2.85-2.13,2.14-2.85,2.84,2.14Zm9.59-15.28-3.2-1.78,1.78-3.2,3.2,1.78Zm8.18-15.64-3.2-1.42,1.42-3.2,3.2,1.42Zm7.1-16.35L568.31,465l1.42-3.2,3.2,1.07Zm5.69-17.06-3.55-1.06c.35-1.07.71-2.49,1.06-3.56l3.56,1.07c-.36,1.07-.71,2.49-1.07,3.55ZM581.46,432l-3.56-.71c.36-1.07.36-2.49.71-3.56l3.56.71A12.86,12.86,0,0,1,581.46,432Zm3.19-17.77-3.55-.36c0-1.06.36-2.48.36-3.55l3.55.35a10.85,10.85,0,0,1-.36,3.56Zm1.78-17.77-3.55-.36a12.28,12.28,0,0,1,.35-3.55h3.56a15.72,15.72,0,0,0-.36,3.91Zm-3.2-17.77v-3.55h3.56v3.55Zm-1.06-17.77c0-1.07-.36-2.49-.36-3.55l3.55-.36c0,1.07.36,2.49.36,3.55Zm-2.49-17.42c-.36-1.06-.36-2.48-.71-3.55l3.55-.71c.36,1.07.36,2.49.71,3.55Zm-3.56-17.05a10.71,10.71,0,0,1-.71-3.56l3.56-1.06.71,3.55Zm-5-17.06-1.07-3.2,3.2-1.07,1.07,3.56Zm-6-16.35-1.42-3.2,3.19-1.42,1.43,3.2Zm-7.47-15.64-1.77-3.2,3.2-1.78,1.77,3.2Zm-8.88-15.28L547,259.26l2.84-1.78,1.78,2.84Zm-10-14.93-2.14-2.84,2.85-2.13,2.13,2.84Zm-10.66-13.5L526,230.82l2.85-2.48,2.48,2.84Zm-12.09-13.15L513.57,218l2.49-2.49,2.49,2.49Zm-13.15-12.09-2.84-2.13,2.13-2.84,2.84,2.13Zm-13.5-10.66-2.85-2.13,2.14-2.84,2.84,2.13Zm-14.93-10L471.64,186l1.77-3.2,3.2,1.78Zm-15.28-8.89-3.2-1.77,1.42-3.2,3.2,1.78Zm-16-7.46-3.2-1.42,1.42-3.2,3.2,1.42Zm-16.35-6.4-3.2-1.06,1.06-3.56,3.56,1.07Zm-17.06-4.62-3.56-.71.71-3.55,3.56.71Zm-17.42-3.55-3.55-.71.71-3.55,3.55.71ZM375,154.41l-3.56-.35.36-3.56,3.55.36Zm-17.77-.71H354v-3.55h3.55Z"/><rect class="cls-4" x="211.84" y="303.32" width="284.32" height="213.95"/><path class="cls-7" d="M480.17,501.28H227.83v-182H480.17Zm-248.78-3.55H476.61V322.87H231.39Z"/><path class="cls-4" d="M489.05,247.53v48.69H219V247.53h270.1m7.11-7.11H211.84v62.9H496.16Z"/><circle class="cls-4" cx="268.7" cy="272.05" r="9.95"/><circle class="cls-4" cx="438.94" cy="272.05" r="9.95"/><rect class="cls-6" x="258.04" y="237.58" width="21.32" height="13.15"/><rect class="cls-7" x="265.15" y="219.81" width="7.11" height="52.24"/><rect class="cls-2" x="426.5" y="202.04" width="24.88" height="52.24"/><rect class="cls-7" x="435.39" y="219.81" width="7.11" height="52.24"/><polygon class="cls-7" points="240.63 534.33 195.49 534.33 195.49 488.13 199.05 488.13 199.05 530.78 240.63 530.78 240.63 534.33"/><path class="cls-7" d="M388.47,474.63l11.73-10.31a10.2,10.2,0,0,0,1.07-14.57c-.36-.36-.71-.71-.71-1.07l-16.35-14.57a10.72,10.72,0,0,0-12.8-1.06l-3.9,2.84a10.88,10.88,0,0,1-13.87-1.78l-28.43-33.05a10.28,10.28,0,0,1,.36-13.51l3.2-3.55a10.7,10.7,0,0,0,1.06-12.79l-12.08-18.13a10.31,10.31,0,0,0-14.22-2.84c-.35.35-.71.35-1.06.71l-11.73,9.95c-8.18,7.11-9.6,28.08,29.14,73.57S381,481,388.47,474.63Z"/><rect class="cls-7" x="195.49" y="457.57" width="3.55" height="17.77"/><rect class="cls-2" x="377.15" y="372.68" width="21.68" height="3.55" transform="translate(-151.14 384.02) rotate(-45)"/><rect class="cls-2" x="392.36" y="399.33" width="18.13" height="3.55" transform="translate(-104.89 144.83) rotate(-18.13)"/><rect class="cls-2" x="352.27" y="358.99" width="18.13" height="3.55" transform="translate(-94.23 591.36) rotate(-71.8)"/></g></svg>