<svg id="Layer_1" data-name="Layer 1" xmlns="http://www.w3.org/2000/svg" viewBox="0 0 708 768"><defs><style>.cls-1{fill:#fdfbf5;}.cls-2{fill:none;}.cls-3{fill:#09553f;}.cls-4{fill:#074e67;}.cls-5{fill:#f6a800;}.cls-6{fill:#007297;}.cls-7{fill:#e0422c;}</style></defs><g id="Layer_1-2" data-name="Layer 1-2"><circle class="cls-1" cx="352.39" cy="384" r="284.32"/><circle class="cls-2" cx="352.39" cy="384" r="284.32"/><path class="cls-3" d="M278.47,109.63l-3.55,1.07-3.56,34.47h0l-.71,22.75h0l4.27,45.49-1.43,18.48-2.84,11.37-7.46,16.35-3.91,5-29.14,23.1-21,10.66L138.8,325h0L121,333.53h0l-11.38,7.82h0L68.07,378.67v5l43-39.09,11.37-7.82,17.41-8.53,70.37-26.65h0l21.33-10.66h0l29.49-23.11h0l4.27-5.33v-.35h0L273.85,245h0v-.36l2.84-11.37h0l1.42-18.84h0l-4.62-46.2.71-22.74Z"/><path class="cls-3" d="M253.24,161.16h0l4.62,34.48.35,26.65-8.88,19.91-28.79,26.65-10.31,6.75-20.61,10.67-68.24,29.14h0l-18.83,10.3h0l-32,24.53c-.35,1.77-.35,3.2-.71,5l34.83-26.65,18.48-10.31,67.53-28.79h0l21-10.66h0L222,271.69h0l29.14-27a1.22,1.22,0,0,0,.36-.71h0l10-20.25h0V223h0l-.36-27h0l-4.62-34.47-.71-45.14-3.55,1.43Z"/><path class="cls-3" d="M191.75,175.74l-4.26,8.88L180,193.86l-28.43,28.79L95.44,262.1a49.11,49.11,0,0,0-2.84,6.4l61.12-43h0l28.44-28.79h0l7.81-9.24v-.35h0l4.27-9.24v-.71l2.49-18.84h0V145.88L193.17,148v9.59Z"/><path class="cls-3" d="M378,137.71h0l-10.66,7.46h0l-9.24,10.31v.35h0l-11.37,19.55h0L333.56,209.5h0l-27.37,89.92-10.66,23.81-13.86,21-12.09,9.24-40.51,17.05h0L183.93,393.6h0l-12.08,7.46v.35l-.71.36L153,422v.71L136.67,454h0l-26.3,78.55c.71,1.42,1.77,2.48,2.48,3.91l26.66-81,16.35-31.28L174,404.26l11.73-7.11,44.78-23.1L271.36,357l.36-.36h0L284.16,347l.35-.36h0l14.22-21.32h0l11.37-24.52h0l27.37-89.56,13.15-34.12,9.95-18.84,8.88-9.95,10.31-7.46L427.38,121h0l13.51-7.46-4.62-1.42L426,117.81Z"/><path class="cls-3" d="M218.41,166.5,217,185l-5,11-22,32h0l-9.24,13.15-9.59,9.24-49.4,24.17h0L81.22,298.35a26.74,26.74,0,0,0-1.42,5l43.72-25.58,49.75-24.17H174l10-9.6h0l9.24-13.15h0l22-32h0l5.33-11.73v-.71L222,167.56h0l-2.49-33.76-3.55,1.78Z"/><path class="cls-3" d="M263.9,621.41l15.64-19.91,41.22-39.8,10.31-6,13.5-5.33,34.83-9.24h.36l10.66-4.27h.36L402.5,529h0l9.24-10v-.35h0l28.08-48.34,8.53-9.95,5.33-3.55,13.15-4.27,49.05,6h0l19.54,1.07h.36l19.9-2.84H556l11.37-3.56h0l66.1-31.63a17.05,17.05,0,0,0,.36-4.26L566,450.1l-11,3.56-19.55,2.84-19.54-1.42-49.05-6h-.71l-13.86,4.62h-.71l-5.69,3.91h-.35l-8.18,10.3h0L408.9,516.21l-9.24,9.59-11.37,7.47-10.66,4.26-34.83,9.24h-.36l-13.86,5.33h0l-10.66,6.4h0l-41.58,40.16h0l-16,20.26h0c0,.35-.35.35-.35.71L254.66,637h0l-2.85,13.86,3.56,1.43,2.49-13.51Z"/><path class="cls-3" d="M94,384.36,123.52,357l19.54-12.08,76.77-27.72h0l21.68-10h0l10-7.1h0l20.61-18.84v-.36h0l10.66-17.41v-.36h0l6.4-22h0l2.13-16.7h0l.71-56.16,9.24-48.33,4.62-16.35-3.9.71-4.27,14.93h0l-8.53,48h0L288.42,223l-2.13,16.71-6.4,21.68-10.66,17.06-19.55,18.48-10,6.75-21.32,9.95-76.77,27.72h0l-19.9,12.44h0L91.53,381.87h0L69.14,409.23c.35,2.14.35,3.91.71,6l1.42-2.85Z"/><path class="cls-4" d="M390.42,620.34l13.86-9.24,34.12-13.86h0L453.68,588l.36-.36h.35l13.15-14.57v-.35h0l11.37-18.84,8.53-10.31,10.31-7.81,9.24-2.49,53.67-2.85h0l24.87-3.19h.71l14.58-6.05c.71-1.42,1.77-3.19,2.48-5l-18.48,7.46-24.52,3.2-54,2.84h-.36L496,532.2h-.71L484.6,540h0l-8.53,10.31h0L464.7,569.16l-13.15,14.22-14.93,8.88-34.47,14.93h0l-14.22,9.24h0l-8.88,9.24h0l-28.79,42.65h4.26l27.37-39.09Z"/><path class="cls-3" d="M161.22,525.13c1.42-2.43,2.82-4.87,4.15-7.32l3.59-6.6,4.38-8,4.79-8.8,4.84-8.89,4.53-8.32,3.86-7.08,2.81-5.16,1.4-2.57.09-.17,14.22-21.33,8.17-9.24,19.55-13.5,12.44-6.4,40.87-11,11.73-5H303l6-3.91.36-.36,8.88-10.3v-.36l3.2-7.11v-.35L339.24,288l10.66-36.6,15.29-32.35,7.46-11.37,8.88-9.95,10.67-8.17,16.7-6.4,68.59-6.4L496,178.93l33.41,14.58,28.79,10.3h.35l7.47,1.42h.35l6.75-.35-2.84-3.2-3.91.36-7.11-1.43-28.43-10.3L497,175.74h-.71l-18.84-2.14h-.35L408.19,180h-.71l-17.06,6.75h-.71l-11,8.18-9.24,10.66L362,217l-15.28,32.7-10.67,37-17.77,85.3-3.19,6.75-8.89,10.66-5.69,3.55-11.37,4.63-40.51,11-12.8,6.76-19.55,13.5-8.17,9.6L193.88,459.7,159.06,523,141.64,551v.35l-5.33,15.29,2.84,3.19,6-17.06,2.18-3.82,4.91-8.64C155.15,535.29,158.24,530.23,161.22,525.13Z"/><path class="cls-3" d="M156.92,487.78l24.88-48.34,7.11-11.37,8.88-9.6,22.39-15.63,21-10,41.58-14.57h0l6.4-3.19h.36l10.3-8.89a1.25,1.25,0,0,0,.36-.71h0l6.75-13.15h0l5-14.93h0l28.43-95.6L357,201.68l13.51-23.1,9.59-10,9.6-6.4,9.59-3.91,78.55-18.12,19.54-.36-6-3.55-13.86.35h-.71l-78.9,18.48h0l-9.95,3.56h0L378,165.43h0l-10,10.31h0L353.46,199.9h0L336.4,240.42h0l-28.08,94.89-5,14.93L298,362.68l-9.95,8.88-6.05,3.2-41.58,14.57h0l-21.32,9.95h0l-23.1,16h0l-9.24,10h0l-8.18,12.08h0L153.72,486h0l-26.65,53h0L122.45,551a21.29,21.29,0,0,0,2.49,3.55l5.68-13.86Z"/><path class="cls-3" d="M217.7,619.27l3.19-11,11.73-26,19.19-28.07,29.5-25.59,19.55-13.86,17.41-8.89,41.23-15.28h.36l9.95-6h0l15.28-15.28h0l6.4-9.6v-.36h0l10.66-26.29h0v-.36l7.46-39.45,5.33-18.84,4.27-9.95,19.9-28.07,11.73-5.69,6-.71,8.53,6.75,3.55,8.89h0a.35.35,0,0,0,.36.35l9.24,9.6h0l14.21,9.59h.36l16.7,5.69h.36l14.57,2.84h0l21,3.2h.35L566,378h0l27.36-.71h.36l12.08-1.42h.36l15.63-4.27h0l13.15-6.4h.36l.71-.71c0-1.42-.35-2.84-.35-4.26L633.16,362l-12.8,6-15.63,4.26-12.09,1.42-27,.71-19.55-.71-20.61-3.2h0L510.9,368l-16.35-5.69-13.86-9.24-8.88-8.88L467.9,335h0l-.36-.36-.35-.36h0L458,326.78h-1.43l-7.1.71h-.71l-12.44,6h0l-.36.36-.35.35h0L415.3,362.68h0l-3.56,10.66h0l-5.33,19.19h0L399,432l-10.31,25.94-6.39,9.24-14.58,14.22-9.59,6-41.23,14.93h0l-17.77,9.24h0L278.82,525.8h0l-29.85,26h0l-19.55,28.43h0l-11.72,26.3h0l-3.2,11.37h0l-1.42,12.44h0v.36l3.55,2.13v-2.49Z"/><path class="cls-3" d="M204.9,574.49l11-20.61,13.86-21,8.88-10.3,19.91-18.49,22-16.34,20.26-11,29.5-8.89h.35l19.19-8.17h.36l10.31-7.46.35-.36h0l9.24-11.73v-.35h0L378,421.67h0v-.35L380.11,411h0l2.49-36.61,5.33-25.94,13.15-38.74,8.53-13.15,9.6-8.53,17.06-8.88L448,276l12.8-1.07,12.44.71,13.5,2.49,9.6,3.91,11,7.11,25.58,22.39h.36l12.08,6.4h.36l29.5,6.39h.35l13.51.36h.35l19.19-3.2h.72l18.83-8.53c-.35-1.07-.71-2.49-1.06-3.55l-19.2,8.53-18.83,3.19-13.15-.35-29.14-6.4-11.73-6.4-25.59-22.39h0l-11.37-7.1h0l-10-3.91h0l-13.86-2.49h-.35l-12.8-.71h-.35l-13.15,1.06h-.36l-12.08,3.2h-.36l-17.41,8.89h-.71l-10,8.88h0l-8.89,13.51v.71l-13.5,39.8h0l-5.69,25.95h0l-2.49,36.6-2.13,10-7.46,17.77L357.72,449l-10,7.11-18.83,8.17-29.5,8.89h-.36l-20.26,11h0l-22.39,17.06h0l-19.9,18.48h0l-8.88,10.66h0l-13.86,21h0l-11.38,21h0l-13.5,34.12h0L186.78,615l3.19,2.13,1.78-8.88Z"/><path class="cls-3" d="M98.28,412.43l15.28-19.19,19.2-18.84,10.3-7.81,19.19-9.6,78.55-29.14h0l10.3-5.33h0L271,305.81h0l12.43-15.64h0l6.4-9.95v-.35h0L298,254.63h0L310.46,185l11.37-46.21,9.24-22.39L339.6,100l-4.27.35L327.51,115h0l-9.59,23.1h0l-11.37,46.21h0l-11.38,69.3L287,278.45,281.31,288l-12.44,15.28-19.54,16L239,324.65l-78.54,29.14h0l-19.55,9.6h0l-10.66,8.17h0l-19.19,19.55h0L95.44,410.3h0l-11.73,21v.35h0L77,453.3c.71,2.14,1.06,4.27,1.78,6.4l8.17-27Z"/><path class="cls-3" d="M246.84,619.27l7.82-16,17.06-21,29.49-27.72,19.2-13.5,10.3-4.62,38-10.67h.36l20.25-11a.35.35,0,0,0,.36-.36h0l14.57-16.7h0l12.79-21h0l15.29-32.34,7.46-11.37,5-3.91,6.39-2.85,6-.71,68.6,9.24h.35l19.55-2.49h.35L634.93,405h.36c0-1.42.36-2.84.36-4.27l-2.14,1.07L545,429.14l-19.19,2.13L457.23,422h-.71l-6.39.71h-.71l-6.76,2.84h0l-5,3.91v.71l-.36.36-7.46,11.73h0l-15.28,32.34-12.44,21-14.22,16.34L368,522.61l-38,10.66h0l-10.66,4.62h0l-19.9,13.86h0l-29.5,27.72h0l-17.06,21.32v.36h0l-7.82,16.35h0l-4.26,12.08h0l-1.42,15.28,3.55,1.42,1.42-16.34Z"/><path class="cls-3" d="M308.32,629.23l13.86-18.49,8.53-9.24,12.09-9.24L358.43,583l59.71-20.25h.36L429.87,556l.35-.35h.36L444.8,540v-.36h0l12.79-25.23,3.91-5.33,4.62-4.62,11.73-6.75,16.35-2.85L534.71,496h.36l36.25-3.55h.35l24.53-7.47.35-.35h0l27.37-18.13h0l.35-.35c.71-1.78,1.07-3.91,1.78-5.69L621.78,464l-27,17.77L571,489.2l-35.89,3.55-40.52-1.06h-.35l-17.06,2.84h-.71l-12.09,7.11h0l-5,5h0l-4.27,5.33h0l-12.79,25.24L428.8,551.75l-11,6.4-60.42,21.32h0l-16,9.24h0L329.29,598h0l-8.88,9.24h0L306.19,626v.35h0L292,660.5l3.56.71Z"/><path class="cls-4" d="M448.71,650.19l19.54-12.08h0l9.95-8.17a.35.35,0,0,1,.36-.36h0l30.56-45.85L520.85,577l15.64-4.62,31.63-3.55a35.89,35.89,0,0,1,3.55-3.91l-35.54,3.91h-.35l-16,4.62h-.36l-12.08,7.11h0l-.36.35-.35.36h0l-30.57,45.84-9.59,7.82L446.93,647h0l-9.24,8.17h0a84.56,84.56,0,0,1,8.88-2.84Z"/><path class="cls-4" d="M405.7,648.06l7.82-9.24L426,629.58l32.34-16.35.36-.35H459l9.95-10h0l20.26-29.15,8.53-9.95,5.69-4.26,5.68-3.56,10-3.2,53.67-4.62h.35l13.51-2.84,2.84-4.26-17.06,3.55-53.66,4.26H518l-10.31,3.2H507l-6,3.56h0l-5.69,4.26h0l-8.53,10h0L466.48,599l-9.6,9.59L424.54,625h0L411,635.62h0l-8.17,9.24h0l-11.37,19.55c1.42-.36,2.84-.36,4.26-.71Z"/><path class="cls-3" d="M273.85,649.13l7.46-20.26,21.33-26.3,18.83-19.19,16.71-12.08,21.32-8.18,37-11h0l14.93-7.1h.35l10.67-9.6h0l6-7.82h0l16-29.85,13.15-13.86,9.24-5L486,476.4l30.57,2.49h.35l36.25-.71h.36l11.73-2.13h.35l18.48-6.4h.36L630,441.57a21,21,0,0,0,.71-4.62l-48,29.86-17.06,5.33-11.37,2.13L518,475l-30.57-2.49h-.35l-19.55,2.85h-.71l-9.95,5-.36.36h-.35l-13.51,14.21v.72l-16,29.85-6,7.46L410,542.15l-14.57,7.11-37,11h0l-21.68,8.17H336l-16.7,12.44h0l-19.19,19.19h0l-21.68,26.66a.35.35,0,0,1-.36.35l-7.81,20.62h0l-1.43,7.46,3.56,1.07Z"/><path class="cls-3" d="M156.92,566,205.61,481l7.11-11.72,19.19-21.68,9.6-7.82,18.12-8.89,18.48-6,27.72-6h.36l13.86-5.33h.36l.35-.36h0l9.6-9.95a1.23,1.23,0,0,0,.35-.71L336,388.62h0v-.36l10.31-70.72,7.46-34.47,7.11-21.68,5.69-13.15,13.5-21.68,9.6-8.53,9.24-4.62,13.5-2.13,19.2.35,35.54,3.56,19.54,4.26,59,22.75h.35L556,244h.35l19.9.71H577l21.33-5c-.71-1.07-1.07-2.13-1.78-3.2l-19.9,5-19.19-.72-9.6-1.77-59-22.75h0L469,212h-.35l-35.9-3.91h0l-19.9.35h-.71l-13.51,2.14h-.71l-9.95,5h-.35l-9.95,8.89v.35h0l-13.51,22h0l-5.69,12.79h0l-7.1,21.68h0l-7.47,34.83h0l-11,71.43-5.34,13.15-8.88,9.6-13.51,5.33-27.72,6h0l-18.83,6h0L240.09,437h0l-10,8.18h0l-20.26,22.39h0l-7.47,11.73h0l-48.69,85.29h0L148,581.25a21.13,21.13,0,0,0,2.84,2.84Z"/><path class="cls-3" d="M222,572.36l11.37-18.48,8.18-10,9.24-9.95,21-17.42L301.21,496l11.73-5.69,36.25-12.43h.36l11-6.76h0l13.15-11v-.36h0l6.75-9.24v-.36h0L389,430.91v-.35h0l2.49-9.6h0l5-38.38,9.24-33.05,14.93-32.34,8.53-10,10.66-7.81,9.95-3.91L469,293.37l12.8,2.85,6.75,2.84,9.24,9.24,19.19,25.59h0l.36.35,10,6.05h.35l18.84,6.39h.36l44.06,5h.36l19.19-2.49h.71l16.35-6.4h0l.36-.35,6.75-5.69c-.36-1.42-.36-2.84-.71-3.91l-8.18,6.76L610.06,346l-18.84,2.49-43.71-5L529,337.09l-9.24-5.69-19.2-25.59h0l-9.95-9.95-.35-.35h-.36l-7.11-3.2h-.35l-13.15-2.85h-.71l-19.9,2.14H448L438,295.51h-.35l-11.37,7.81H426L417.07,314v.35l-.71,2.13-14.92,32.7h0l-9.24,33.41h0l-4.27,38-2.49,9.24-8.17,18.83-6.4,8.89-12.79,11L347.42,475l-36.25,12.09h0l-12.09,5.68h0l-29.85,20.62h0l-21,17.77h0l-9.6,10.3h0l-8.17,10.31h0l-11.37,18.83h0l-16.35,37.68v.35l-2.84,14.57,3.19,2.14L206,609.68Z"/><path class="cls-3" d="M181.45,593l8.17-20.61L203.84,545,222,515.5l12.8-15.64L254.3,481l17.06-11.37,19.9-8.88,38.39-10.31H330l10.31-3.91h.35l10-6.75.35-.36h0l6.4-7.46v-.36h0l7.11-15.28V416l2.84-13.15h0l3.55-46.56,10.31-46.2,8.17-19.55,11-13.15,9.6-8.17L427.38,261l11.37-2.49,24.88-1.06,13.86,1.42,18.13,5,21,10.3,21.68,14.57h.35l17.77,7.11h.71l19.9,2.49h.36l19.9-1.42h.36l12.44-3.56h.35l11-5.68a12.66,12.66,0,0,0-1.42-3.2l-11,6-12.08,3.55-19.19,1.78-19.2-2.13-17.41-7.11-21.32-14.57h0l-21-10.66h-.36l-18.48-5h-.35L465.41,255h-.36l-25.23,1.07h-2.13L426,258.54h-.36l-17.77,8.18h-.71l-9.24,7.11h0L385.8,288v.71l-8.53,19.91h0l-10.66,46.91h0l-3.56,46.2-2.13,12.44-7.11,14.93-6,7.1L338.18,443l-9.95,3.91-38.39,10.3h0l-20.26,8.89h0l-17.41,11.37h0l-19.55,18.84h0l-12.79,16h0L201.7,542.15h0l-14.57,27.37h0l-8.88,22h0l-3.91,13.51,3.2,2.49Z"/><path class="cls-4" d="M530.8,604.7l2.13-1.06c3.91-3.2,7.82-6.76,11.38-9.95l-15.64,8.17H528l-5,4.62v.36l-.35.35-3.91,6.75a65.33,65.33,0,0,0,7.82-6Z"/><rect class="cls-5" x="174.34" y="262.45" width="355.75" height="239.18"/><path class="cls-3" d="M352.39,99.68c157.09,0,284.32,127.23,284.32,284.32S509.48,668.32,352.39,668.32"/><path class="cls-1" d="M364.12,615.36v-3.55l3.55-.35L368,615Zm17.77-1.77-.36-3.56,3.56-.35.35,3.55Zm17.77-2.85-.71-3.55,3.55-.71.71,3.55Zm17.41-4.26L416,602.93l3.55-1.07,1.07,3.55Zm17.06-5.69-1.06-3.2,3.2-1.42,1.42,3.2ZM450.48,594l-1.42-3.2,3.2-1.42,1.42,3.2Zm16-8.17-1.78-3.2,3.2-1.78,1.77,3.2Zm15.28-9.6-2.14-2.84,2.85-2.13,2.13,2.84Zm14.57-10.66-2.13-2.84,2.84-2.14,2.13,2.85Zm13.5-11.37-2.48-2.49,2.48-2.49,2.49,2.49Zm12.8-12.8L520.14,539l2.49-2.48,2.49,2.48Zm11.73-13.5-2.85-2.14,2.14-2.84,2.84,2.13ZM545,513.72l-2.84-2.13,2.13-2.85,2.84,2.14Zm9.59-15.28-3.19-1.78,1.77-3.2,3.2,1.78Zm8.18-15.64-3.2-1.42,1.42-3.2,3.2,1.42Zm7.11-16.35L566.7,465l1.42-3.2,3.2,1.07Zm5.68-17.06L572,448.33c.35-1.07.71-2.49,1.06-3.56l3.56,1.07c-.36,1.07-.71,2.49-1.07,3.55ZM579.85,432l-3.56-.71c.36-1.07.36-2.49.71-3.56l3.56.71A12.86,12.86,0,0,1,579.85,432Zm3.2-17.77-3.56-.36c0-1.06.36-2.48.36-3.55l3.55.35a11.14,11.14,0,0,1-.35,3.56Zm1.77-17.77-3.55-.36a12.28,12.28,0,0,1,.35-3.55h3.56a15.72,15.72,0,0,0-.36,3.91Zm-3.2-17.77v-3.55h3.56v3.55Zm-1.06-17.77c0-1.07-.36-2.49-.36-3.55l3.56-.36c0,1.07.35,2.49.35,3.55Zm-2.49-17.42c-.35-1.06-.35-2.48-.71-3.55l3.55-.71c.36,1.07.36,2.49.71,3.55Zm-3.55-17.05a10.47,10.47,0,0,1-.71-3.56l3.55-1.06.71,3.55Zm-5-17.06-1.07-3.2,3.2-1.07,1.07,3.56Zm-6-16.35-1.42-3.2,3.2-1.42,1.42,3.2ZM556,277.38l-1.78-3.2,3.2-1.78,1.77,3.2Zm-8.89-15.28-1.78-2.84,2.85-1.78,1.77,2.84Zm-9.95-14.93-2.13-2.84,2.84-2.13L540,245Zm-10.66-13.5-2.13-2.85,2.84-2.48,2.49,2.84Zm-12.09-13.15L512,218l2.48-2.49,2.49,2.49ZM501.3,208.43l-2.84-2.13,2.13-2.84,2.85,2.13Zm-13.5-10.66L485,195.64l2.13-2.84,2.84,2.13Zm-14.93-10L470,186l1.78-3.2,3.19,1.78Zm-15.28-8.89-3.2-1.77,1.42-3.2,3.2,1.78Zm-16-7.46-3.2-1.42,1.42-3.2,3.2,1.42Zm-16.35-6.4-3.2-1.06,1.07-3.56,3.55,1.07Zm-17.06-4.62-3.55-.71.71-3.55,3.55.71Zm-17.41-3.55-3.56-.71.71-3.55,3.56.71Zm-17.42-2.49-3.55-.35.35-3.56,3.56.36Zm-17.77-.71h-3.2v-3.55H356Z"/><path class="cls-2" d="M352.39,416.34a43.35,43.35,0,0,0,30.21-12.08L530.45,262.81H352.39Z"/><polygon class="cls-3" points="352.39 307.94 352.39 312.92 413.52 374.4 416.01 371.92 352.39 307.94"/><polygon class="cls-3" points="352.39 325.36 352.39 330.69 404.64 382.93 407.12 380.45 352.39 325.36"/><polygon class="cls-3" points="352.39 273.12 352.39 278.09 431.29 357.35 434.13 354.86 352.39 273.12"/><polygon class="cls-3" points="359.86 263.16 357.37 265.65 440.53 348.82 443.02 346.33 359.86 263.16"/><polygon class="cls-3" points="352.39 342.77 352.39 348.11 395.75 391.46 398.24 388.98 352.39 342.77"/><path class="cls-3" d="M365.9,413.85a14.63,14.63,0,0,0,3.55-1.42l-17.06-17.06v5Z"/><path class="cls-3" d="M352.39,378v5l25.24,25.24c1.06-.71,1.77-1.42,2.84-2.14Z"/><polygon class="cls-3" points="352.39 360.54 352.39 365.52 386.87 399.99 389.35 397.5 352.39 360.54"/><polygon class="cls-3" points="352.39 290.53 352.39 295.51 422.41 365.88 425.25 363.39 352.39 290.53"/><polygon class="cls-3" points="464.34 263.16 461.86 265.65 493.84 297.64 496.33 295.15 464.34 263.16"/><polygon class="cls-3" points="481.4 263.16 479.27 265.65 502.37 289.11 505.21 286.62 481.4 263.16"/><polygon class="cls-6" points="498.82 263.16 496.33 265.65 511.25 280.58 514.1 278.09 498.82 263.16"/><polygon class="cls-6" points="516.23 263.16 513.74 265.65 520.14 272.05 522.63 269.56 516.23 263.16"/><polygon class="cls-3" points="412.1 263.16 409.61 265.65 467.19 323.23 469.67 320.74 412.1 263.16"/><polygon class="cls-3" points="377.27 263.16 374.78 265.65 449.06 340.29 451.9 337.8 377.27 263.16"/><polygon class="cls-3" points="446.93 263.16 444.44 265.65 484.6 306.17 487.44 303.68 446.93 263.16"/><polygon class="cls-3" points="394.69 263.16 392.2 265.65 458.3 331.76 460.79 329.27 394.69 263.16"/><polygon class="cls-3" points="429.51 263.16 427.03 265.65 476.07 314.7 478.56 312.21 429.51 263.16"/><path class="cls-1" d="M352.39,419.9a47.15,47.15,0,0,1-32.69-13.15L171.85,264.94l5-5L324.32,401.41a38.6,38.6,0,0,0,27.72,11h0v7.47Z"/><path class="cls-3" d="M352.39,419.9v-7.11a38.94,38.94,0,0,0,27.72-11.38L528,260l5,5L385.09,406.39A47.53,47.53,0,0,1,352.39,419.9Z"/><rect class="cls-3" x="464.37" y="355.58" width="7.11" height="172.72" transform="translate(-174.92 473.82) rotate(-46.2)"/><rect class="cls-1" x="150.54" y="438.34" width="172.72" height="7.11" transform="translate(-239.91 286.83) rotate(-43.79)"/><polygon class="cls-1" points="352.39 505.19 170.78 505.19 170.78 258.9 352.39 258.9 352.39 266.01 177.89 266.01 177.89 498.08 352.39 498.08 352.39 505.19"/><polygon class="cls-3" points="534.71 505.19 353.46 505.19 353.46 498.08 527.6 498.08 527.6 266.01 353.46 266.01 353.46 258.9 534.71 258.9 534.71 505.19"/><rect class="cls-1" x="589.28" y="125.28" width="24.52" height="49.4" transform="matrix(0.54, -0.84, 0.84, 0.54, 151.63, 576.51)"/><rect class="cls-5" x="360.88" y="264.12" width="304.57" height="49.4" transform="translate(-6.29 566.18) rotate(-57.47)"/><path class="cls-7" d="M629.25,153l-41.58-26.65L594.42,116a24.67,24.67,0,0,1,34.12-7.46h0A24.67,24.67,0,0,1,636,142.68h0Z"/><rect class="cls-3" x="606.49" y="114.98" width="3.55" height="49.4" transform="translate(163.42 577.42) rotate(-57.47)"/><rect class="cls-4" x="429.42" y="392.49" width="3.55" height="49.4" transform="translate(-152.41 556.41) rotate(-57.47)"/><polygon class="cls-1" points="410.32 403.9 401.08 454.37 410.68 460.41 451.9 430.56 410.32 403.9"/><polygon class="cls-5" points="397.88 469.3 410.68 460.41 401.08 454.37 397.88 469.3"/><rect class="cls-3" x="593.4" y="135.79" width="3.55" height="49.4" transform="translate(139.83 576) rotate(-57.47)"/><rect class="cls-3" x="599.72" y="125.39" width="3.55" height="49.4" transform="translate(151.52 576.52) rotate(-57.47)"/><rect class="cls-3" x="429.42" y="392.49" width="3.55" height="49.4" transform="translate(-152.41 556.41) rotate(-57.47)"/><rect class="cls-3" x="293.04" y="465.74" width="59.71" height="3.55"/><rect class="cls-3" x="275.27" y="452.95" width="59.71" height="3.55"/><rect class="cls-5" x="352.75" y="465.74" width="46.91" height="3.55"/></g></svg>