<?xml version="1.0" encoding="utf-8"?>
<!-- Generator: Adobe Illustrator 23.0.6, SVG Export Plug-In . SVG Version: 6.00 Build 0)  -->
<svg version="1.1" id="Layer_1" xmlns="http://www.w3.org/2000/svg" xmlns:xlink="http://www.w3.org/1999/xlink" x="0px" y="0px"
	 viewBox="0 0 641.5 92.8" style="enable-background:new 0 0 641.5 92.8;" xml:space="preserve">
<g>
	<path d="M53.4,35.5L34.1,76.8h-7.2L4.8,9.1H0l0-0.5h37.5l0,0.5h-4.9l13,42.2l7.7-16.5L45.3,9.1h-3.9l0-0.5H81l0,0.5h-8.2l11.4,42.2
		l9.5-21.2c1.5-3.3,2.2-6.5,2.2-9.3c0-6.8-3.8-11.7-9.1-11.7h-1l0-0.5h26.3l0,0.5h-0.7c-4.8,0-11.7,9.3-15.5,17.5L73,76.8h-6.8
		L53.4,35.5z"/>
	<path d="M123.2,54.5c0.1,10,3.8,18.6,12.2,18.6c7.7,0,12.7-6.8,16.4-13l0.5,0.2C150.1,64,142.8,78,124.1,78
		c-16.3,0-23.9-9.8-23.9-23.3c0-15.9,11.8-31.6,34.2-31.6c11.8,0,19.3,5.1,19.3,13.3C153.7,47.8,141.3,53.8,123.2,54.5z M123.2,54.1
		c10.5-1.1,13.6-11.8,13.6-23.2c0-3.3-0.5-7.3-2.9-7.3C128.3,23.6,123.2,42.6,123.2,54.1L123.2,54.1z"/>
	<path d="M183.2,72.8c3.1,0,5.2-5,6.1-6.7l0.3,0.3c-2.8,7.5-10,11.7-16.9,11.7c-9.5,0-13.8-4.7-13.8-13.7c0-10.6,4.3-41.9,6.2-55.2
		h-7.2l0.1-0.5c11.8,0,24.2-2.4,28.3-8.7h0.5c-2.4,16-7.5,50.5-7.5,65.8C179.3,71.5,181.4,72.8,183.2,72.8z"/>
	<path d="M218.9,72.8c3.1,0,5.2-5,6.1-6.7l0.3,0.3c-2.8,7.5-10,11.7-16.9,11.7c-9.5,0-13.8-4.7-13.8-13.7c0-10.6,4.3-41.9,6.2-55.2
		h-7.2l0.1-0.5c11.8,0,24.2-2.4,28.3-8.7h0.5c-2.4,16-7.5,50.5-7.5,65.8C214.9,71.5,217,72.8,218.9,72.8z"/>
	<path d="M227.6,86.5c1.3,0.5,3.6,0.9,5.9,0.9c6.7,0,14.7-3.7,16.5-15.1h-0.4c-1.3,2.3-4.3,5.7-11.3,5.7c-5.6,0-10-3.8-10-9.3
		c0-7.2,5.8-11.7,11.9-11.7c6.6,0,10.6,4.7,10.6,11.9c0,10.1-6.4,19-17.4,19c-2.3,0-4.5-0.4-6-1L227.6,86.5z"/>
	<path d="M279.8,73.6c2.3,1.6,6.6,3.6,13.9,3.6c3.5,0,7.4-1.4,7.4-6.6c0-11.1-20.7-13.6-20.7-30.5c0-10.4,8.9-17,24.4-17
		c16.8,0,19.2,6.6,19.2,11.1c0,4.2-3.5,7.7-8.8,7.7c-3.9,0-8-2.9-8-8c0-4.1,2.8-8.1,9.8-8.4c-2.6-1-6.1-1.7-9.1-1.7
		c-3.9,0-8.2,1.9-8.2,6.2c0,12.5,23.6,14,23.6,30.3c0,9.1-7.7,17.7-27.1,17.7c-11.5,0-20.8-3.5-20.8-11.8c0-5.8,4.9-8.9,9.1-8.9
		c3.9,0,8.7,2.7,8.7,8.6c0,4.5-4.1,8.4-9.3,8.4C282.5,74.4,281.2,74.2,279.8,73.6z"/>
	<path d="M363.4,64.3c0-7.2,3.1-24.7,3.1-31.1c0-3.3-1-4.6-2.3-4.6c-3,0-9.7,11.7-10.7,21.9l-2.6,25.6h-21.2
		c2.3-21.7,4.3-45,8.3-66.9h-7.2l0.1-0.5c11.8,0,24.2-2.4,28.3-8.7h0.5c-1.2,10.2-3.4,22.2-4.8,36.7l-1,9.1
		c2.6-11.6,9.4-22.7,20.5-22.7c10,0,14.1,6.4,14.1,14.7c0,9.3-4.3,24.1-4.3,28.6c0,5,1.9,6.4,3.8,6.4c3.1,0,5.2-5,6.1-6.7l0.3,0.3
		c-2.8,7.5-9.8,11.7-16.8,11.7C368.1,78,363.4,73.3,363.4,64.3z"/>
	<path d="M428.1,23.1c14.8,0,26.2,8,26.2,25.6c0,18.2-13.6,29.3-31.8,29.3c-15.7,0-26.2-8-26.2-24.8
		C396.2,34.1,410.9,23.1,428.1,23.1z M418,62.8c0,9.6,0.6,14.7,4.3,14.7c7.5,0,10.8-24.1,10.8-38.6c0-11-0.8-15.4-4.1-15.4
		C422.1,23.6,418,45.7,418,62.8z"/>
	<path d="M489.8,23.1c14.8,0,26.2,8,26.2,25.6c0,18.2-13.6,29.3-31.8,29.3c-15.7,0-26.2-8-26.2-24.8
		C457.9,34.1,472.7,23.1,489.8,23.1z M479.7,62.8c0,9.6,0.6,14.7,4.3,14.7c7.5,0,10.8-24.1,10.8-38.6c0-11-0.8-15.4-4.1-15.4
		C483.8,23.6,479.7,45.7,479.7,62.8z"/>
	<path d="M548.7,25h14.8l0,0.5h-14.9c-2,11.9-4.2,27.4-4.2,36.9c0,7.4,1.7,10.1,5.5,10.1c6.1,0,11.1-11.4,11.8-14.3l0.4,0.2
		c-1.8,6.3-8.4,19.6-22.8,19.6c-12.5,0-16.2-7.6-16.2-17c0-12.6,4.4-35.5,4.4-35.5h-7.5l0-0.5c8.8,0,23.8-2.4,31.1-16.4h0.5
		C551.7,8.7,550.3,15.7,548.7,25z"/>
	<path d="M574.6,78c-5.8,0-10.7-3.6-10.7-9.4c0-7.2,5.4-11.6,11.9-11.6c5.9,0,10.8,3.6,10.8,9.4C586.6,73.7,581.3,78,574.6,78z"/>
	<path d="M602,78c-5.8,0-10.7-3.6-10.7-9.4c0-7.2,5.4-11.6,11.9-11.6c5.9,0,10.8,3.6,10.8,9.4C614,73.7,608.7,78,602,78z"/>
	<path d="M629.5,78c-5.8,0-10.7-3.6-10.7-9.4c0-7.2,5.4-11.6,11.9-11.6c5.9,0,10.8,3.6,10.8,9.4C641.5,73.7,636.2,78,629.5,78z"/>
</g>
</svg>
